%FSLAX34Y34*%
%MOMM*%
%LNSMDMASK_TOP*%
G71*
G01*
%ADD10R,0.640X2.200*%
%ADD11R,2.200X0.640*%
%ADD12R,0.700X2.800*%
%ADD13R,2.200X0.500*%
%ADD14R,0.500X2.200*%
%ADD15R,1.900X0.700*%
%ADD16R,0.700X1.900*%
%ADD17R,0.640X2.100*%
%ADD18R,2.100X0.640*%
%ADD19R,1.700X1.200*%
%ADD20R,0.450X1.800*%
%ADD21R,1.800X0.450*%
%ADD22R,1.400X3.400*%
%ADD23R,2.600X1.300*%
%ADD24R,1.300X2.600*%
%ADD25R,2.300X1.900*%
%ADD26R,1.900X2.300*%
%ADD27R,1.800X1.400*%
%ADD28R,2.400X2.600*%
%ADD29R,1.300X3.500*%
%ADD30R,3.500X1.300*%
%ADD31R,1.450X0.750*%
%ADD32R,2.100X0.800*%
%ADD33R,2.600X3.600*%
%LPD*%
X2074366Y622969D02*
G54D10*
D03*
X2087066Y622969D02*
G54D10*
D03*
X2099766Y622969D02*
G54D10*
D03*
X2112466Y622969D02*
G54D10*
D03*
X2125168Y622969D02*
G54D10*
D03*
X2137868Y622969D02*
G54D10*
D03*
X2155962Y641263D02*
G54D11*
D03*
X2155962Y653963D02*
G54D11*
D03*
X2155962Y666663D02*
G54D11*
D03*
X2155962Y679363D02*
G54D11*
D03*
X2155962Y692063D02*
G54D11*
D03*
X2155962Y704763D02*
G54D11*
D03*
X2155962Y717463D02*
G54D11*
D03*
X2155962Y730163D02*
G54D11*
D03*
X2155962Y742863D02*
G54D11*
D03*
X2155962Y755563D02*
G54D11*
D03*
X2155962Y768263D02*
G54D11*
D03*
X2137868Y786358D02*
G54D10*
D03*
X2125168Y786358D02*
G54D10*
D03*
X2112466Y786358D02*
G54D10*
D03*
X2099766Y786358D02*
G54D10*
D03*
X2087066Y786358D02*
G54D10*
D03*
X2074366Y786358D02*
G54D10*
D03*
X2061666Y786358D02*
G54D10*
D03*
X2048966Y786358D02*
G54D10*
D03*
X2036266Y786358D02*
G54D10*
D03*
X2023566Y786358D02*
G54D10*
D03*
X2010866Y786358D02*
G54D10*
D03*
X1992572Y768263D02*
G54D11*
D03*
X1992572Y755563D02*
G54D11*
D03*
X1992572Y742863D02*
G54D11*
D03*
X1992572Y730163D02*
G54D11*
D03*
X1992572Y717463D02*
G54D11*
D03*
X1992572Y704763D02*
G54D11*
D03*
X1992572Y692063D02*
G54D11*
D03*
X1992572Y679363D02*
G54D11*
D03*
X1992572Y666663D02*
G54D11*
D03*
X1992572Y653963D02*
G54D11*
D03*
X1992572Y641263D02*
G54D11*
D03*
X2010866Y622969D02*
G54D10*
D03*
X2023566Y622969D02*
G54D10*
D03*
X2036266Y622969D02*
G54D10*
D03*
X2048966Y622969D02*
G54D10*
D03*
X2061666Y622969D02*
G54D10*
D03*
X2119174Y-500464D02*
G54D11*
D03*
X2119174Y-487764D02*
G54D11*
D03*
X2119174Y-475064D02*
G54D11*
D03*
X2119174Y-462364D02*
G54D11*
D03*
X2119174Y-449664D02*
G54D11*
D03*
X2119174Y-436964D02*
G54D11*
D03*
X2101672Y-419464D02*
G54D10*
D03*
X2088973Y-419464D02*
G54D10*
D03*
X2076273Y-419464D02*
G54D10*
D03*
X2063573Y-419464D02*
G54D10*
D03*
X2050873Y-419464D02*
G54D10*
D03*
X2038173Y-419464D02*
G54D10*
D03*
X2025473Y-419464D02*
G54D10*
D03*
X2012773Y-419464D02*
G54D10*
D03*
X2000073Y-419464D02*
G54D10*
D03*
X1987373Y-419464D02*
G54D10*
D03*
X1974673Y-419464D02*
G54D10*
D03*
X1957173Y-436964D02*
G54D11*
D03*
X1957173Y-449664D02*
G54D11*
D03*
X1957173Y-462364D02*
G54D11*
D03*
X1957173Y-475064D02*
G54D11*
D03*
X1957173Y-487764D02*
G54D11*
D03*
X1957173Y-500464D02*
G54D11*
D03*
X1957173Y-513164D02*
G54D11*
D03*
X1957173Y-525864D02*
G54D11*
D03*
X1957173Y-538564D02*
G54D11*
D03*
X1957173Y-551264D02*
G54D11*
D03*
X1957173Y-563964D02*
G54D11*
D03*
X1974673Y-581464D02*
G54D10*
D03*
X1987373Y-581464D02*
G54D10*
D03*
X2000073Y-581464D02*
G54D10*
D03*
X2012773Y-581464D02*
G54D10*
D03*
X2025473Y-581464D02*
G54D10*
D03*
X2038173Y-581464D02*
G54D10*
D03*
X2050873Y-581464D02*
G54D10*
D03*
X2063573Y-581464D02*
G54D10*
D03*
X2076273Y-581464D02*
G54D10*
D03*
X2088973Y-581464D02*
G54D10*
D03*
X2101672Y-581464D02*
G54D10*
D03*
X2119174Y-563964D02*
G54D11*
D03*
X2119174Y-551264D02*
G54D11*
D03*
X2119174Y-538564D02*
G54D11*
D03*
X2119174Y-525864D02*
G54D11*
D03*
X2119174Y-513164D02*
G54D11*
D03*
X1597095Y531900D02*
G54D12*
D03*
X1609795Y531900D02*
G54D12*
D03*
X1622495Y531900D02*
G54D12*
D03*
X1635195Y531900D02*
G54D12*
D03*
X1647895Y531900D02*
G54D12*
D03*
X1698695Y531900D02*
G54D12*
D03*
X1711395Y531900D02*
G54D12*
D03*
X1724095Y531900D02*
G54D12*
D03*
X1736795Y531900D02*
G54D12*
D03*
X1749495Y531900D02*
G54D12*
D03*
X1749495Y611837D02*
G54D12*
D03*
X1736795Y611837D02*
G54D12*
D03*
X1724095Y611837D02*
G54D12*
D03*
X1711395Y611837D02*
G54D12*
D03*
X1698695Y611837D02*
G54D12*
D03*
X1647895Y611837D02*
G54D12*
D03*
X1635195Y611837D02*
G54D12*
D03*
X1622495Y611837D02*
G54D12*
D03*
X1609795Y611837D02*
G54D12*
D03*
X1597095Y611837D02*
G54D12*
D03*
X1597095Y404900D02*
G54D12*
D03*
X1609795Y404900D02*
G54D12*
D03*
X1622495Y404900D02*
G54D12*
D03*
X1635195Y404900D02*
G54D12*
D03*
X1647895Y404900D02*
G54D12*
D03*
X1698695Y404900D02*
G54D12*
D03*
X1711395Y404900D02*
G54D12*
D03*
X1724095Y404900D02*
G54D12*
D03*
X1736795Y404900D02*
G54D12*
D03*
X1749495Y404900D02*
G54D12*
D03*
X1749495Y484837D02*
G54D12*
D03*
X1736795Y484837D02*
G54D12*
D03*
X1724095Y484837D02*
G54D12*
D03*
X1711395Y484837D02*
G54D12*
D03*
X1698695Y484837D02*
G54D12*
D03*
X1647895Y484837D02*
G54D12*
D03*
X1635195Y484837D02*
G54D12*
D03*
X1622495Y484837D02*
G54D12*
D03*
X1609795Y484837D02*
G54D12*
D03*
X1597095Y484837D02*
G54D12*
D03*
X1597095Y277900D02*
G54D12*
D03*
X1609795Y277900D02*
G54D12*
D03*
X1622495Y277900D02*
G54D12*
D03*
X1635195Y277900D02*
G54D12*
D03*
X1647895Y277900D02*
G54D12*
D03*
X1698695Y277900D02*
G54D12*
D03*
X1711395Y277900D02*
G54D12*
D03*
X1724095Y277900D02*
G54D12*
D03*
X1736795Y277900D02*
G54D12*
D03*
X1749495Y277900D02*
G54D12*
D03*
X1749495Y357837D02*
G54D12*
D03*
X1736795Y357837D02*
G54D12*
D03*
X1724095Y357837D02*
G54D12*
D03*
X1711395Y357837D02*
G54D12*
D03*
X1698695Y357837D02*
G54D12*
D03*
X1647895Y357837D02*
G54D12*
D03*
X1635195Y357837D02*
G54D12*
D03*
X1622495Y357837D02*
G54D12*
D03*
X1609795Y357837D02*
G54D12*
D03*
X1597095Y357837D02*
G54D12*
D03*
X1597095Y150900D02*
G54D12*
D03*
X1609795Y150900D02*
G54D12*
D03*
X1622495Y150900D02*
G54D12*
D03*
X1635195Y150900D02*
G54D12*
D03*
X1647895Y150900D02*
G54D12*
D03*
X1698695Y150900D02*
G54D12*
D03*
X1711395Y150900D02*
G54D12*
D03*
X1724095Y150900D02*
G54D12*
D03*
X1736795Y150900D02*
G54D12*
D03*
X1749495Y150900D02*
G54D12*
D03*
X1749495Y230837D02*
G54D12*
D03*
X1736795Y230837D02*
G54D12*
D03*
X1724095Y230837D02*
G54D12*
D03*
X1711395Y230837D02*
G54D12*
D03*
X1698695Y230837D02*
G54D12*
D03*
X1647895Y230837D02*
G54D12*
D03*
X1635195Y230837D02*
G54D12*
D03*
X1622495Y230837D02*
G54D12*
D03*
X1609795Y230837D02*
G54D12*
D03*
X1597095Y230837D02*
G54D12*
D03*
X1597095Y23900D02*
G54D12*
D03*
X1609795Y23900D02*
G54D12*
D03*
X1622495Y23900D02*
G54D12*
D03*
X1635195Y23900D02*
G54D12*
D03*
X1647895Y23900D02*
G54D12*
D03*
X1698695Y23900D02*
G54D12*
D03*
X1711395Y23900D02*
G54D12*
D03*
X1724095Y23900D02*
G54D12*
D03*
X1736795Y23900D02*
G54D12*
D03*
X1749495Y23900D02*
G54D12*
D03*
X1749495Y103838D02*
G54D12*
D03*
X1736795Y103838D02*
G54D12*
D03*
X1724095Y103838D02*
G54D12*
D03*
X1711395Y103838D02*
G54D12*
D03*
X1698695Y103838D02*
G54D12*
D03*
X1647895Y103838D02*
G54D12*
D03*
X1635195Y103838D02*
G54D12*
D03*
X1622495Y103838D02*
G54D12*
D03*
X1609795Y103838D02*
G54D12*
D03*
X1597095Y103838D02*
G54D12*
D03*
X1597095Y-103100D02*
G54D12*
D03*
X1609795Y-103100D02*
G54D12*
D03*
X1622495Y-103100D02*
G54D12*
D03*
X1635195Y-103100D02*
G54D12*
D03*
X1647895Y-103100D02*
G54D12*
D03*
X1698695Y-103100D02*
G54D12*
D03*
X1711395Y-103100D02*
G54D12*
D03*
X1724095Y-103100D02*
G54D12*
D03*
X1736795Y-103100D02*
G54D12*
D03*
X1749495Y-103100D02*
G54D12*
D03*
X1749495Y-23162D02*
G54D12*
D03*
X1736795Y-23162D02*
G54D12*
D03*
X1724095Y-23162D02*
G54D12*
D03*
X1711395Y-23162D02*
G54D12*
D03*
X1698695Y-23162D02*
G54D12*
D03*
X1647895Y-23162D02*
G54D12*
D03*
X1635195Y-23162D02*
G54D12*
D03*
X1622495Y-23162D02*
G54D12*
D03*
X1609795Y-23162D02*
G54D12*
D03*
X1597095Y-23162D02*
G54D12*
D03*
X1597095Y-230100D02*
G54D12*
D03*
X1609795Y-230100D02*
G54D12*
D03*
X1622495Y-230100D02*
G54D12*
D03*
X1635195Y-230100D02*
G54D12*
D03*
X1647895Y-230100D02*
G54D12*
D03*
X1698695Y-230100D02*
G54D12*
D03*
X1711395Y-230100D02*
G54D12*
D03*
X1724095Y-230100D02*
G54D12*
D03*
X1736795Y-230100D02*
G54D12*
D03*
X1749495Y-230100D02*
G54D12*
D03*
X1749495Y-150162D02*
G54D12*
D03*
X1736795Y-150162D02*
G54D12*
D03*
X1724095Y-150162D02*
G54D12*
D03*
X1711395Y-150162D02*
G54D12*
D03*
X1698695Y-150162D02*
G54D12*
D03*
X1647895Y-150162D02*
G54D12*
D03*
X1635195Y-150162D02*
G54D12*
D03*
X1622495Y-150162D02*
G54D12*
D03*
X1609795Y-150162D02*
G54D12*
D03*
X1597095Y-150162D02*
G54D12*
D03*
X1597095Y-357100D02*
G54D12*
D03*
X1609795Y-357100D02*
G54D12*
D03*
X1622495Y-357100D02*
G54D12*
D03*
X1635195Y-357100D02*
G54D12*
D03*
X1647895Y-357100D02*
G54D12*
D03*
X1698695Y-357100D02*
G54D12*
D03*
X1711395Y-357100D02*
G54D12*
D03*
X1724095Y-357100D02*
G54D12*
D03*
X1736795Y-357100D02*
G54D12*
D03*
X1749495Y-357100D02*
G54D12*
D03*
X1749495Y-277163D02*
G54D12*
D03*
X1736795Y-277163D02*
G54D12*
D03*
X1724095Y-277163D02*
G54D12*
D03*
X1711395Y-277163D02*
G54D12*
D03*
X1698695Y-277163D02*
G54D12*
D03*
X1647895Y-277163D02*
G54D12*
D03*
X1635195Y-277163D02*
G54D12*
D03*
X1622495Y-277163D02*
G54D12*
D03*
X1609795Y-277163D02*
G54D12*
D03*
X1597095Y-277163D02*
G54D12*
D03*
X1151556Y136957D02*
G54D13*
D03*
X1151556Y128957D02*
G54D13*
D03*
X1151556Y120957D02*
G54D13*
D03*
X1151556Y112957D02*
G54D13*
D03*
X1151556Y104957D02*
G54D13*
D03*
X1151556Y96957D02*
G54D13*
D03*
X1151556Y88957D02*
G54D13*
D03*
X1151556Y80957D02*
G54D13*
D03*
X1151556Y72957D02*
G54D13*
D03*
X1151556Y64957D02*
G54D13*
D03*
X1151556Y56957D02*
G54D13*
D03*
X1151556Y48957D02*
G54D13*
D03*
X1151556Y40957D02*
G54D13*
D03*
X1151556Y32957D02*
G54D13*
D03*
X1151556Y24957D02*
G54D13*
D03*
X1151556Y16957D02*
G54D13*
D03*
X1151556Y8957D02*
G54D13*
D03*
X1151556Y957D02*
G54D13*
D03*
X1151556Y-7043D02*
G54D13*
D03*
X1151556Y-15044D02*
G54D13*
D03*
X1151556Y-23044D02*
G54D13*
D03*
X1151556Y-31044D02*
G54D13*
D03*
X1151556Y-39044D02*
G54D13*
D03*
X1151556Y-47044D02*
G54D13*
D03*
X1151556Y-55043D02*
G54D13*
D03*
X1151556Y-63043D02*
G54D13*
D03*
X1151556Y-71043D02*
G54D13*
D03*
X1151556Y-79043D02*
G54D13*
D03*
X1151556Y-87043D02*
G54D13*
D03*
X1151556Y-95043D02*
G54D13*
D03*
X1151556Y-103043D02*
G54D13*
D03*
X1151556Y-111043D02*
G54D13*
D03*
X1180937Y-140425D02*
G54D14*
D03*
X1188937Y-140425D02*
G54D14*
D03*
X1196937Y-140425D02*
G54D14*
D03*
X1204937Y-140425D02*
G54D14*
D03*
X1212937Y-140425D02*
G54D14*
D03*
X1220937Y-140425D02*
G54D14*
D03*
X1228937Y-140425D02*
G54D14*
D03*
X1236937Y-140425D02*
G54D14*
D03*
X1244937Y-140425D02*
G54D14*
D03*
X1252937Y-140425D02*
G54D14*
D03*
X1260937Y-140425D02*
G54D14*
D03*
X1268937Y-140425D02*
G54D14*
D03*
X1276937Y-140425D02*
G54D14*
D03*
X1284937Y-140425D02*
G54D14*
D03*
X1292937Y-140425D02*
G54D14*
D03*
X1300937Y-140425D02*
G54D14*
D03*
X1308937Y-140425D02*
G54D14*
D03*
X1316937Y-140425D02*
G54D14*
D03*
X1324937Y-140425D02*
G54D14*
D03*
X1332937Y-140425D02*
G54D14*
D03*
X1340937Y-140425D02*
G54D14*
D03*
X1348937Y-140425D02*
G54D14*
D03*
X1356937Y-140425D02*
G54D14*
D03*
X1364936Y-140425D02*
G54D14*
D03*
X1372936Y-140425D02*
G54D14*
D03*
X1380936Y-140425D02*
G54D14*
D03*
X1388936Y-140425D02*
G54D14*
D03*
X1396936Y-140425D02*
G54D14*
D03*
X1404936Y-140425D02*
G54D14*
D03*
X1412936Y-140425D02*
G54D14*
D03*
X1420936Y-140425D02*
G54D14*
D03*
X1428936Y-140425D02*
G54D14*
D03*
X1458318Y-111043D02*
G54D13*
D03*
X1458318Y-103043D02*
G54D13*
D03*
X1458318Y-95043D02*
G54D13*
D03*
X1458318Y-87043D02*
G54D13*
D03*
X1458318Y-79043D02*
G54D13*
D03*
X1458318Y-71043D02*
G54D13*
D03*
X1458318Y-63043D02*
G54D13*
D03*
X1458318Y-55043D02*
G54D13*
D03*
X1458318Y-47044D02*
G54D13*
D03*
X1458318Y-39044D02*
G54D13*
D03*
X1458318Y-31044D02*
G54D13*
D03*
X1458318Y-23044D02*
G54D13*
D03*
X1458318Y-15044D02*
G54D13*
D03*
X1458318Y-7043D02*
G54D13*
D03*
X1458318Y957D02*
G54D13*
D03*
X1458318Y8957D02*
G54D13*
D03*
X1458318Y16957D02*
G54D13*
D03*
X1458318Y24957D02*
G54D13*
D03*
X1458318Y32957D02*
G54D13*
D03*
X1458318Y40957D02*
G54D13*
D03*
X1458318Y48957D02*
G54D13*
D03*
X1458318Y56957D02*
G54D13*
D03*
X1458318Y64957D02*
G54D13*
D03*
X1458318Y72957D02*
G54D13*
D03*
X1458318Y80957D02*
G54D13*
D03*
X1458318Y88957D02*
G54D13*
D03*
X1458318Y96957D02*
G54D13*
D03*
X1458318Y104957D02*
G54D13*
D03*
X1458318Y112957D02*
G54D13*
D03*
X1458318Y120957D02*
G54D13*
D03*
X1458318Y128957D02*
G54D13*
D03*
X1458318Y136957D02*
G54D13*
D03*
X1428936Y166338D02*
G54D14*
D03*
X1420936Y166338D02*
G54D14*
D03*
X1412936Y166338D02*
G54D14*
D03*
X1404936Y166338D02*
G54D14*
D03*
X1396936Y166338D02*
G54D14*
D03*
X1388936Y166338D02*
G54D14*
D03*
X1380936Y166338D02*
G54D14*
D03*
X1372936Y166338D02*
G54D14*
D03*
X1364936Y166338D02*
G54D14*
D03*
X1356937Y166338D02*
G54D14*
D03*
X1348937Y166338D02*
G54D14*
D03*
X1340937Y166338D02*
G54D14*
D03*
X1332937Y166338D02*
G54D14*
D03*
X1324937Y166338D02*
G54D14*
D03*
X1316937Y166338D02*
G54D14*
D03*
X1308937Y166338D02*
G54D14*
D03*
X1300937Y166338D02*
G54D14*
D03*
X1292937Y166338D02*
G54D14*
D03*
X1284937Y166338D02*
G54D14*
D03*
X1276937Y166338D02*
G54D14*
D03*
X1268937Y166338D02*
G54D14*
D03*
X1260937Y166338D02*
G54D14*
D03*
X1252937Y166338D02*
G54D14*
D03*
X1244937Y166338D02*
G54D14*
D03*
X1236937Y166338D02*
G54D14*
D03*
X1228937Y166338D02*
G54D14*
D03*
X1220937Y166338D02*
G54D14*
D03*
X1212937Y166338D02*
G54D14*
D03*
X1204937Y166338D02*
G54D14*
D03*
X1196937Y166338D02*
G54D14*
D03*
X1188937Y166338D02*
G54D14*
D03*
X1180937Y166338D02*
G54D14*
D03*
X1380301Y614742D02*
G54D10*
D03*
X1367601Y614742D02*
G54D10*
D03*
X1354901Y614742D02*
G54D10*
D03*
X1337301Y597142D02*
G54D11*
D03*
X1337301Y584442D02*
G54D11*
D03*
X1337301Y571742D02*
G54D11*
D03*
X1337301Y559042D02*
G54D11*
D03*
X1337301Y546342D02*
G54D11*
D03*
X1354901Y528742D02*
G54D10*
D03*
X1367601Y528742D02*
G54D10*
D03*
X1380301Y528742D02*
G54D10*
D03*
X1393001Y528742D02*
G54D10*
D03*
X1405701Y528742D02*
G54D10*
D03*
X1423301Y546342D02*
G54D11*
D03*
X1423301Y559042D02*
G54D11*
D03*
X1423301Y571742D02*
G54D11*
D03*
X1423301Y584442D02*
G54D11*
D03*
X1423301Y597142D02*
G54D11*
D03*
X1405701Y614742D02*
G54D10*
D03*
X1393001Y614742D02*
G54D10*
D03*
X1380268Y693624D02*
G54D10*
D03*
X1392967Y693624D02*
G54D10*
D03*
X1405668Y693624D02*
G54D10*
D03*
X1423268Y711224D02*
G54D11*
D03*
X1423268Y723924D02*
G54D11*
D03*
X1423268Y736624D02*
G54D11*
D03*
X1423268Y749324D02*
G54D11*
D03*
X1423268Y762024D02*
G54D11*
D03*
X1405668Y779624D02*
G54D10*
D03*
X1392968Y779624D02*
G54D10*
D03*
X1380268Y779624D02*
G54D10*
D03*
G36*
X1364367Y790624D02*
X1370767Y790624D01*
X1370768Y768624D01*
X1364368Y768624D01*
X1364367Y790624D01*
G37*
X1354868Y779624D02*
G54D10*
D03*
X1337268Y762024D02*
G54D11*
D03*
X1337268Y749324D02*
G54D11*
D03*
X1337268Y736624D02*
G54D11*
D03*
X1337268Y723924D02*
G54D11*
D03*
X1337268Y711224D02*
G54D11*
D03*
X1354868Y693624D02*
G54D10*
D03*
X1367568Y693624D02*
G54D10*
D03*
X1535911Y527520D02*
G54D15*
D03*
X1535911Y540219D02*
G54D15*
D03*
X1535911Y552919D02*
G54D15*
D03*
X1535911Y565619D02*
G54D15*
D03*
X1535911Y578319D02*
G54D15*
D03*
X1535911Y591019D02*
G54D15*
D03*
X1535911Y603719D02*
G54D15*
D03*
X1535911Y616419D02*
G54D15*
D03*
X1479561Y616419D02*
G54D15*
D03*
X1479561Y603719D02*
G54D15*
D03*
X1479561Y591019D02*
G54D15*
D03*
X1479561Y578319D02*
G54D15*
D03*
X1479561Y565619D02*
G54D15*
D03*
X1479561Y552919D02*
G54D15*
D03*
X1479561Y540219D02*
G54D15*
D03*
X1479561Y527520D02*
G54D15*
D03*
X1488227Y686072D02*
G54D16*
D03*
X1500927Y686072D02*
G54D16*
D03*
X1513627Y686072D02*
G54D16*
D03*
X1526327Y686072D02*
G54D16*
D03*
X1539027Y686072D02*
G54D16*
D03*
X1551727Y686072D02*
G54D16*
D03*
X1564427Y686072D02*
G54D16*
D03*
X1577127Y686072D02*
G54D16*
D03*
X1589827Y686072D02*
G54D16*
D03*
X1602527Y686072D02*
G54D16*
D03*
X1602527Y787598D02*
G54D16*
D03*
X1589827Y787598D02*
G54D16*
D03*
X1577127Y787598D02*
G54D16*
D03*
X1564427Y787598D02*
G54D16*
D03*
X1551727Y787598D02*
G54D16*
D03*
X1539027Y787598D02*
G54D16*
D03*
X1526327Y787598D02*
G54D16*
D03*
X1513627Y787598D02*
G54D16*
D03*
X1500927Y787598D02*
G54D16*
D03*
X1488227Y787598D02*
G54D16*
D03*
X1640627Y686072D02*
G54D16*
D03*
X1653327Y686072D02*
G54D16*
D03*
X1666027Y686072D02*
G54D16*
D03*
X1678727Y686072D02*
G54D16*
D03*
X1691427Y686072D02*
G54D16*
D03*
X1704127Y686072D02*
G54D16*
D03*
X1716827Y686072D02*
G54D16*
D03*
X1729527Y686072D02*
G54D16*
D03*
X1742227Y686072D02*
G54D16*
D03*
X1754927Y686072D02*
G54D16*
D03*
X1754927Y787598D02*
G54D16*
D03*
X1742227Y787598D02*
G54D16*
D03*
X1729527Y787598D02*
G54D16*
D03*
X1716827Y787598D02*
G54D16*
D03*
X1704127Y787598D02*
G54D16*
D03*
X1691427Y787598D02*
G54D16*
D03*
X1678727Y787598D02*
G54D16*
D03*
X1666027Y787598D02*
G54D16*
D03*
X1653327Y787598D02*
G54D16*
D03*
X1640627Y787598D02*
G54D16*
D03*
X1100818Y528526D02*
G54D17*
D03*
X1113518Y528526D02*
G54D17*
D03*
X1126218Y528526D02*
G54D17*
D03*
X1138918Y528526D02*
G54D17*
D03*
X1151618Y528526D02*
G54D17*
D03*
X1164318Y528526D02*
G54D17*
D03*
X1177018Y528526D02*
G54D17*
D03*
X1189718Y528526D02*
G54D17*
D03*
X1202418Y528526D02*
G54D17*
D03*
X1220215Y546124D02*
G54D18*
D03*
X1220215Y558824D02*
G54D18*
D03*
X1220215Y571524D02*
G54D18*
D03*
X1220215Y584224D02*
G54D18*
D03*
X1220215Y596924D02*
G54D18*
D03*
X1220215Y609624D02*
G54D18*
D03*
X1220215Y622324D02*
G54D18*
D03*
X1220215Y635024D02*
G54D18*
D03*
X1220215Y647724D02*
G54D18*
D03*
X1220215Y660424D02*
G54D18*
D03*
X1220215Y673124D02*
G54D18*
D03*
X1220215Y685824D02*
G54D18*
D03*
X1220215Y698524D02*
G54D18*
D03*
X1220215Y711224D02*
G54D18*
D03*
X1220215Y723924D02*
G54D18*
D03*
X1220215Y736624D02*
G54D18*
D03*
X1220215Y749324D02*
G54D18*
D03*
X1202418Y767120D02*
G54D17*
D03*
X1189718Y767120D02*
G54D17*
D03*
X1177018Y767120D02*
G54D17*
D03*
X1164318Y767120D02*
G54D17*
D03*
X1151618Y767120D02*
G54D17*
D03*
X1138918Y767120D02*
G54D17*
D03*
X1126218Y767120D02*
G54D17*
D03*
X1113518Y767120D02*
G54D17*
D03*
X1100818Y767120D02*
G54D17*
D03*
X1088118Y767120D02*
G54D17*
D03*
X1075418Y767120D02*
G54D17*
D03*
X1062718Y767120D02*
G54D17*
D03*
X1050018Y767120D02*
G54D17*
D03*
X1037318Y767120D02*
G54D17*
D03*
X1024618Y767120D02*
G54D17*
D03*
X1011918Y767120D02*
G54D17*
D03*
X999218Y767120D02*
G54D17*
D03*
X981421Y749324D02*
G54D18*
D03*
X981421Y736624D02*
G54D18*
D03*
X981421Y723924D02*
G54D18*
D03*
X981421Y711224D02*
G54D18*
D03*
X981421Y698524D02*
G54D18*
D03*
X981421Y685824D02*
G54D18*
D03*
X981421Y673124D02*
G54D18*
D03*
X981421Y660424D02*
G54D18*
D03*
X981421Y647724D02*
G54D18*
D03*
X981421Y635024D02*
G54D18*
D03*
X981421Y622324D02*
G54D18*
D03*
X981421Y609624D02*
G54D18*
D03*
X981421Y596924D02*
G54D18*
D03*
X981421Y584224D02*
G54D18*
D03*
X981421Y571524D02*
G54D18*
D03*
X981421Y558824D02*
G54D18*
D03*
X981421Y546124D02*
G54D18*
D03*
X999218Y528526D02*
G54D17*
D03*
X1011918Y528526D02*
G54D17*
D03*
X1024618Y528526D02*
G54D17*
D03*
X1037318Y528526D02*
G54D17*
D03*
X1050018Y528526D02*
G54D17*
D03*
X1062718Y528526D02*
G54D17*
D03*
X1075418Y528526D02*
G54D17*
D03*
X1088118Y528526D02*
G54D17*
D03*
X1120673Y342958D02*
G54D16*
D03*
X1133373Y342958D02*
G54D16*
D03*
X1146073Y342958D02*
G54D16*
D03*
X1158773Y342958D02*
G54D16*
D03*
X1171473Y342958D02*
G54D16*
D03*
X1184173Y342958D02*
G54D16*
D03*
X1196873Y342958D02*
G54D16*
D03*
X1209573Y342958D02*
G54D16*
D03*
X1222273Y342958D02*
G54D16*
D03*
X1234973Y342958D02*
G54D16*
D03*
X1234973Y444482D02*
G54D16*
D03*
X1222273Y444482D02*
G54D16*
D03*
X1209573Y444482D02*
G54D16*
D03*
X1196873Y444482D02*
G54D16*
D03*
X1184173Y444482D02*
G54D16*
D03*
X1171473Y444482D02*
G54D16*
D03*
X1158773Y444482D02*
G54D16*
D03*
X1146073Y444482D02*
G54D16*
D03*
X1133373Y444482D02*
G54D16*
D03*
X1120673Y444482D02*
G54D16*
D03*
X1323873Y342958D02*
G54D16*
D03*
X1336573Y342958D02*
G54D16*
D03*
X1349273Y342958D02*
G54D16*
D03*
X1361973Y342958D02*
G54D16*
D03*
X1374673Y342958D02*
G54D16*
D03*
X1387373Y342958D02*
G54D16*
D03*
X1400073Y342958D02*
G54D16*
D03*
X1412773Y342958D02*
G54D16*
D03*
X1425473Y342958D02*
G54D16*
D03*
X1438173Y342958D02*
G54D16*
D03*
X1438173Y444482D02*
G54D16*
D03*
X1425473Y444482D02*
G54D16*
D03*
X1412773Y444482D02*
G54D16*
D03*
X1400073Y444482D02*
G54D16*
D03*
X1387373Y444482D02*
G54D16*
D03*
X1374673Y444482D02*
G54D16*
D03*
X1361973Y444482D02*
G54D16*
D03*
X1349273Y444482D02*
G54D16*
D03*
X1336573Y444482D02*
G54D16*
D03*
X1323873Y444482D02*
G54D16*
D03*
X798947Y437728D02*
G54D15*
D03*
X798947Y450428D02*
G54D15*
D03*
X798947Y463128D02*
G54D15*
D03*
X798947Y475828D02*
G54D15*
D03*
X798947Y488528D02*
G54D15*
D03*
X798947Y501228D02*
G54D15*
D03*
X798947Y513928D02*
G54D15*
D03*
X798947Y526628D02*
G54D15*
D03*
X798947Y539328D02*
G54D15*
D03*
X798947Y552028D02*
G54D15*
D03*
X798947Y564728D02*
G54D15*
D03*
X798947Y577427D02*
G54D15*
D03*
X798947Y590126D02*
G54D15*
D03*
X798947Y602826D02*
G54D15*
D03*
X698185Y602826D02*
G54D15*
D03*
X698185Y590126D02*
G54D15*
D03*
X698185Y577427D02*
G54D15*
D03*
X698185Y564728D02*
G54D15*
D03*
X698185Y552028D02*
G54D15*
D03*
X698185Y539328D02*
G54D15*
D03*
X698185Y526628D02*
G54D15*
D03*
X698185Y513928D02*
G54D15*
D03*
X698185Y501228D02*
G54D15*
D03*
X698185Y488528D02*
G54D15*
D03*
X698185Y475828D02*
G54D15*
D03*
X698185Y463128D02*
G54D15*
D03*
X698185Y450428D02*
G54D15*
D03*
X698185Y437728D02*
G54D15*
D03*
X316121Y762608D02*
G54D11*
D03*
X316121Y775308D02*
G54D11*
D03*
X316121Y788008D02*
G54D11*
D03*
X316121Y800708D02*
G54D11*
D03*
X298221Y818608D02*
G54D10*
D03*
X285521Y818608D02*
G54D10*
D03*
X272821Y818608D02*
G54D10*
D03*
X260121Y818608D02*
G54D10*
D03*
X247421Y818608D02*
G54D10*
D03*
X234721Y818608D02*
G54D10*
D03*
X222021Y818608D02*
G54D10*
D03*
X204121Y800708D02*
G54D11*
D03*
X204121Y788008D02*
G54D11*
D03*
X204121Y775308D02*
G54D11*
D03*
X204121Y762608D02*
G54D11*
D03*
X204121Y749908D02*
G54D11*
D03*
X204121Y737208D02*
G54D11*
D03*
X204121Y724508D02*
G54D11*
D03*
X222021Y706608D02*
G54D10*
D03*
X234721Y706608D02*
G54D10*
D03*
X247421Y706608D02*
G54D10*
D03*
X260121Y706608D02*
G54D10*
D03*
X272821Y706608D02*
G54D10*
D03*
X285521Y706608D02*
G54D10*
D03*
X298221Y706608D02*
G54D10*
D03*
X316121Y724508D02*
G54D11*
D03*
X316121Y737208D02*
G54D11*
D03*
X316121Y749908D02*
G54D11*
D03*
X139010Y751972D02*
G54D16*
D03*
X126310Y751972D02*
G54D16*
D03*
X113610Y751972D02*
G54D16*
D03*
X100910Y751972D02*
G54D16*
D03*
X100910Y695622D02*
G54D16*
D03*
X113610Y695622D02*
G54D16*
D03*
X126310Y695622D02*
G54D16*
D03*
X139010Y695622D02*
G54D16*
D03*
X492919Y696365D02*
G54D16*
D03*
X480219Y696365D02*
G54D16*
D03*
X467519Y696365D02*
G54D16*
D03*
X454819Y696365D02*
G54D16*
D03*
X454819Y640015D02*
G54D16*
D03*
X467519Y640015D02*
G54D16*
D03*
X480219Y640015D02*
G54D16*
D03*
X492919Y640015D02*
G54D16*
D03*
X582613Y513809D02*
G54D16*
D03*
X595313Y513809D02*
G54D16*
D03*
X608013Y513809D02*
G54D16*
D03*
X620713Y513809D02*
G54D16*
D03*
X620713Y570159D02*
G54D16*
D03*
X608013Y570159D02*
G54D16*
D03*
X595313Y570159D02*
G54D16*
D03*
X582613Y570159D02*
G54D16*
D03*
X584994Y620171D02*
G54D16*
D03*
X597694Y620171D02*
G54D16*
D03*
X610394Y620171D02*
G54D16*
D03*
X623094Y620171D02*
G54D16*
D03*
X623094Y676521D02*
G54D16*
D03*
X610394Y676521D02*
G54D16*
D03*
X597694Y676521D02*
G54D16*
D03*
X584994Y676521D02*
G54D16*
D03*
X757863Y670772D02*
G54D19*
D03*
X757863Y650772D02*
G54D19*
D03*
X782625Y660772D02*
G54D19*
D03*
X391944Y577110D02*
G54D19*
D03*
X391944Y557110D02*
G54D19*
D03*
X416706Y567110D02*
G54D19*
D03*
X247879Y556869D02*
G54D19*
D03*
X247879Y536869D02*
G54D19*
D03*
X272641Y546869D02*
G54D19*
D03*
X324416Y148354D02*
G54D20*
D03*
X330816Y148354D02*
G54D20*
D03*
X337116Y148354D02*
G54D20*
D03*
X343416Y148354D02*
G54D20*
D03*
X349816Y148354D02*
G54D20*
D03*
X356216Y148354D02*
G54D20*
D03*
X362516Y148354D02*
G54D20*
D03*
X368816Y148354D02*
G54D20*
D03*
X375216Y148354D02*
G54D20*
D03*
X381616Y148354D02*
G54D20*
D03*
X387916Y148354D02*
G54D20*
D03*
X394216Y148354D02*
G54D20*
D03*
X400616Y148354D02*
G54D20*
D03*
X407016Y148354D02*
G54D20*
D03*
X413316Y148354D02*
G54D20*
D03*
X419616Y148354D02*
G54D20*
D03*
X426016Y148354D02*
G54D20*
D03*
X432416Y148354D02*
G54D20*
D03*
X438716Y148354D02*
G54D20*
D03*
X445016Y148354D02*
G54D20*
D03*
X451416Y148354D02*
G54D20*
D03*
X457816Y148354D02*
G54D20*
D03*
X464116Y148354D02*
G54D20*
D03*
X470416Y148354D02*
G54D20*
D03*
X476816Y148354D02*
G54D20*
D03*
X483216Y148354D02*
G54D20*
D03*
X489516Y148354D02*
G54D20*
D03*
X495816Y148354D02*
G54D20*
D03*
X502216Y148354D02*
G54D20*
D03*
X508616Y148354D02*
G54D20*
D03*
X514916Y148354D02*
G54D20*
D03*
X521216Y148354D02*
G54D20*
D03*
X527616Y148354D02*
G54D20*
D03*
X558016Y178754D02*
G54D21*
D03*
X558016Y185154D02*
G54D21*
D03*
X558016Y191454D02*
G54D21*
D03*
X558016Y197754D02*
G54D21*
D03*
X558016Y204154D02*
G54D21*
D03*
X558016Y210554D02*
G54D21*
D03*
X558016Y216854D02*
G54D21*
D03*
X558016Y223154D02*
G54D21*
D03*
X558016Y229554D02*
G54D21*
D03*
X558016Y235954D02*
G54D21*
D03*
X558016Y242254D02*
G54D21*
D03*
X558016Y248554D02*
G54D21*
D03*
X558016Y254954D02*
G54D21*
D03*
X558016Y261354D02*
G54D21*
D03*
X558016Y267654D02*
G54D21*
D03*
X558016Y273954D02*
G54D21*
D03*
X558016Y280354D02*
G54D21*
D03*
X558016Y286754D02*
G54D21*
D03*
X558016Y293054D02*
G54D21*
D03*
X558016Y299354D02*
G54D21*
D03*
X558016Y305754D02*
G54D21*
D03*
X558016Y312154D02*
G54D21*
D03*
X558016Y318454D02*
G54D21*
D03*
X558016Y324754D02*
G54D21*
D03*
X558016Y331154D02*
G54D21*
D03*
X558016Y337554D02*
G54D21*
D03*
X558016Y343854D02*
G54D21*
D03*
X558016Y350154D02*
G54D21*
D03*
X558016Y356554D02*
G54D21*
D03*
X558016Y362954D02*
G54D21*
D03*
X558016Y369254D02*
G54D21*
D03*
X558016Y375554D02*
G54D21*
D03*
X558016Y381954D02*
G54D21*
D03*
X527616Y412354D02*
G54D20*
D03*
X521216Y412354D02*
G54D20*
D03*
X514916Y412354D02*
G54D20*
D03*
X508616Y412354D02*
G54D20*
D03*
X502216Y412354D02*
G54D20*
D03*
X495816Y412354D02*
G54D20*
D03*
X489516Y412354D02*
G54D20*
D03*
X483216Y412354D02*
G54D20*
D03*
X476816Y412354D02*
G54D20*
D03*
X470416Y412354D02*
G54D20*
D03*
X464116Y412354D02*
G54D20*
D03*
X457816Y412354D02*
G54D20*
D03*
X451416Y412354D02*
G54D20*
D03*
X445016Y412354D02*
G54D20*
D03*
X438716Y412354D02*
G54D20*
D03*
X432416Y412354D02*
G54D20*
D03*
X426016Y412354D02*
G54D20*
D03*
X419616Y412354D02*
G54D20*
D03*
X413316Y412354D02*
G54D20*
D03*
X407016Y412354D02*
G54D20*
D03*
X400616Y412354D02*
G54D20*
D03*
X394216Y412354D02*
G54D20*
D03*
X387916Y412354D02*
G54D20*
D03*
X381616Y412354D02*
G54D20*
D03*
X375216Y412354D02*
G54D20*
D03*
X368816Y412354D02*
G54D20*
D03*
X362516Y412354D02*
G54D20*
D03*
X356216Y412354D02*
G54D20*
D03*
X349816Y412354D02*
G54D20*
D03*
X343416Y412354D02*
G54D20*
D03*
X337116Y412354D02*
G54D20*
D03*
X330816Y412354D02*
G54D20*
D03*
X324416Y412354D02*
G54D20*
D03*
X294016Y381954D02*
G54D21*
D03*
X294016Y375554D02*
G54D21*
D03*
X294016Y369254D02*
G54D21*
D03*
X294016Y362954D02*
G54D21*
D03*
X294016Y356554D02*
G54D21*
D03*
X294016Y350154D02*
G54D21*
D03*
X294016Y343854D02*
G54D21*
D03*
X294016Y337554D02*
G54D21*
D03*
X294016Y331154D02*
G54D21*
D03*
X294016Y324754D02*
G54D21*
D03*
X294016Y318454D02*
G54D21*
D03*
X294016Y312154D02*
G54D21*
D03*
X294016Y305754D02*
G54D21*
D03*
X294016Y299354D02*
G54D21*
D03*
X294016Y293054D02*
G54D21*
D03*
X294016Y286754D02*
G54D21*
D03*
X294016Y280354D02*
G54D21*
D03*
X294016Y273954D02*
G54D21*
D03*
X294016Y267654D02*
G54D21*
D03*
X294016Y261354D02*
G54D21*
D03*
X294016Y254954D02*
G54D21*
D03*
X294016Y248554D02*
G54D21*
D03*
X294016Y242254D02*
G54D21*
D03*
X294016Y235954D02*
G54D21*
D03*
X294016Y229554D02*
G54D21*
D03*
X294016Y223154D02*
G54D21*
D03*
X294016Y216854D02*
G54D21*
D03*
X294016Y210554D02*
G54D21*
D03*
X294016Y204154D02*
G54D21*
D03*
X294016Y197754D02*
G54D21*
D03*
X294016Y191454D02*
G54D21*
D03*
X294016Y185154D02*
G54D21*
D03*
X294016Y178754D02*
G54D21*
D03*
X2165079Y-301638D02*
G54D22*
D03*
X2165079Y-357200D02*
G54D22*
D03*
X2165079Y-174242D02*
G54D22*
D03*
X2165079Y-229804D02*
G54D22*
D03*
X2164520Y213950D02*
G54D22*
D03*
X2164520Y269513D02*
G54D22*
D03*
X471451Y536213D02*
G54D22*
D03*
X471451Y591775D02*
G54D22*
D03*
X329126Y650860D02*
G54D22*
D03*
X329126Y595298D02*
G54D22*
D03*
X587491Y794925D02*
G54D22*
D03*
X587491Y739363D02*
G54D22*
D03*
X136074Y791046D02*
G54D23*
D03*
X97974Y791046D02*
G54D23*
D03*
X113056Y653330D02*
G54D23*
D03*
X151156Y653330D02*
G54D23*
D03*
X406831Y660848D02*
G54D24*
D03*
X406831Y622748D02*
G54D24*
D03*
X410712Y704130D02*
G54D23*
D03*
X372612Y704130D02*
G54D23*
D03*
X424999Y761677D02*
G54D23*
D03*
X386899Y761677D02*
G54D23*
D03*
X424999Y817636D02*
G54D23*
D03*
X386899Y817636D02*
G54D23*
D03*
X481840Y798166D02*
G54D24*
D03*
X481840Y760066D02*
G54D24*
D03*
X540181Y679898D02*
G54D24*
D03*
X540181Y641798D02*
G54D24*
D03*
X540975Y590998D02*
G54D24*
D03*
X540975Y552898D02*
G54D24*
D03*
X677205Y629765D02*
G54D24*
D03*
X677205Y667865D02*
G54D24*
D03*
X607650Y467966D02*
G54D24*
D03*
X607650Y429866D02*
G54D24*
D03*
X2164716Y-476710D02*
G54D25*
D03*
X2164716Y-436810D02*
G54D25*
D03*
X1317817Y-208187D02*
G54D25*
D03*
X1317817Y-248087D02*
G54D25*
D03*
X1285637Y221393D02*
G54D25*
D03*
X1285637Y261293D02*
G54D25*
D03*
X2200038Y797656D02*
G54D25*
D03*
X2200038Y837556D02*
G54D25*
D03*
X265668Y601996D02*
G54D25*
D03*
X265668Y641896D02*
G54D25*
D03*
X531709Y-579004D02*
G54D26*
D03*
X491809Y-579004D02*
G54D26*
D03*
X2126368Y564356D02*
G54D25*
D03*
X2126368Y524456D02*
G54D25*
D03*
X1278924Y566116D02*
G54D25*
D03*
X1278924Y526216D02*
G54D25*
D03*
X1091308Y54715D02*
G54D27*
D03*
X1091308Y23540D02*
G54D27*
D03*
X1091308Y124962D02*
G54D27*
D03*
X1091308Y93787D02*
G54D27*
D03*
X530921Y794887D02*
G54D27*
D03*
X530921Y763712D02*
G54D27*
D03*
X1292867Y826091D02*
G54D28*
D03*
X1340491Y826091D02*
G54D28*
D03*
X1942703Y832048D02*
G54D29*
D03*
X1988740Y832048D02*
G54D29*
D03*
X2026047Y832048D02*
G54D29*
D03*
X2072084Y832048D02*
G54D29*
D03*
X2109394Y832048D02*
G54D29*
D03*
X2155438Y832048D02*
G54D29*
D03*
X1082003Y-109402D02*
G54D30*
D03*
X1082003Y-155439D02*
G54D30*
D03*
X620834Y398598D02*
G54D30*
D03*
X620834Y352561D02*
G54D30*
D03*
X1539221Y-354070D02*
G54D29*
D03*
X1493183Y-354070D02*
G54D29*
D03*
X1856582Y831454D02*
G54D31*
D03*
X1856582Y793354D02*
G54D31*
D03*
X1856582Y806054D02*
G54D31*
D03*
X1856582Y818754D02*
G54D31*
D03*
X1856582Y767954D02*
G54D31*
D03*
X1856582Y780654D02*
G54D31*
D03*
X1896270Y831454D02*
G54D31*
D03*
X1896270Y793354D02*
G54D31*
D03*
X1896270Y806054D02*
G54D31*
D03*
X1896270Y818754D02*
G54D31*
D03*
X1896270Y767954D02*
G54D31*
D03*
X1896270Y780654D02*
G54D31*
D03*
X659010Y792956D02*
G54D32*
D03*
X659010Y780256D02*
G54D32*
D03*
X659010Y767556D02*
G54D32*
D03*
X659010Y754856D02*
G54D32*
D03*
X659010Y742156D02*
G54D32*
D03*
X659010Y729456D02*
G54D32*
D03*
X659010Y716756D02*
G54D32*
D03*
X659010Y704056D02*
G54D32*
D03*
X705048Y792956D02*
G54D32*
D03*
X705048Y780256D02*
G54D32*
D03*
X705048Y767556D02*
G54D32*
D03*
X705048Y754856D02*
G54D32*
D03*
X705048Y742156D02*
G54D32*
D03*
X705048Y729456D02*
G54D32*
D03*
X705048Y716756D02*
G54D32*
D03*
X705048Y704056D02*
G54D32*
D03*
X943570Y-493712D02*
G54D33*
D03*
X650279Y-493712D02*
G54D33*
D03*
M02*
