%FSLAX34Y34*%
%MOMM*%
%LNSMDMASK_BOTTOM*%
G71*
G01*
%ADD10R,1.400X1.800*%
%ADD11R,1.600X1.250*%
%ADD12R,1.900X2.300*%
%ADD13R,1.300X3.500*%
%LPD*%
X181858Y889334D02*
G54D10*
D03*
X213033Y889334D02*
G54D10*
D03*
X257880Y889334D02*
G54D10*
D03*
X289055Y889334D02*
G54D10*
D03*
X181372Y850106D02*
G54D11*
D03*
X212726Y850106D02*
G54D11*
D03*
X181372Y812403D02*
G54D11*
D03*
X212726Y812403D02*
G54D11*
D03*
X257969Y850106D02*
G54D11*
D03*
X289322Y850106D02*
G54D11*
D03*
X257176Y819943D02*
G54D10*
D03*
X288350Y819943D02*
G54D10*
D03*
X181372Y774303D02*
G54D10*
D03*
X212547Y774303D02*
G54D10*
D03*
X411560Y835818D02*
G54D10*
D03*
X442735Y835818D02*
G54D10*
D03*
X412750Y809625D02*
G54D11*
D03*
X444104Y809625D02*
G54D11*
D03*
X486966Y808037D02*
G54D11*
D03*
X518319Y808037D02*
G54D11*
D03*
X309960Y774303D02*
G54D11*
D03*
X341313Y774303D02*
G54D11*
D03*
X181769Y698500D02*
G54D10*
D03*
X212944Y698500D02*
G54D10*
D03*
X181769Y672703D02*
G54D10*
D03*
X212944Y672703D02*
G54D10*
D03*
X181769Y646906D02*
G54D10*
D03*
X212944Y646906D02*
G54D10*
D03*
X118269Y646906D02*
G54D10*
D03*
X149444Y646906D02*
G54D10*
D03*
X117872Y577453D02*
G54D10*
D03*
X149047Y577453D02*
G54D10*
D03*
X242094Y640556D02*
G54D10*
D03*
X273269Y640556D02*
G54D10*
D03*
X242094Y611981D02*
G54D10*
D03*
X273269Y611981D02*
G54D10*
D03*
X242094Y583803D02*
G54D10*
D03*
X273269Y583803D02*
G54D10*
D03*
X242094Y546100D02*
G54D10*
D03*
X273269Y546100D02*
G54D10*
D03*
X309960Y622300D02*
G54D10*
D03*
X341135Y622300D02*
G54D10*
D03*
X232172Y512762D02*
G54D10*
D03*
X263347Y512762D02*
G54D10*
D03*
X233363Y479822D02*
G54D10*
D03*
X264538Y479822D02*
G54D10*
D03*
X244476Y711993D02*
G54D11*
D03*
X275828Y711993D02*
G54D11*
D03*
X244476Y684609D02*
G54D11*
D03*
X275828Y684609D02*
G54D11*
D03*
X310158Y698500D02*
G54D11*
D03*
X341511Y698500D02*
G54D11*
D03*
X310158Y672703D02*
G54D11*
D03*
X341511Y672703D02*
G54D11*
D03*
X373282Y622300D02*
G54D10*
D03*
X404456Y622300D02*
G54D10*
D03*
X430650Y622300D02*
G54D10*
D03*
X461826Y622300D02*
G54D10*
D03*
X373282Y652859D02*
G54D10*
D03*
X404456Y652859D02*
G54D10*
D03*
X411778Y711596D02*
G54D10*
D03*
X442954Y711596D02*
G54D10*
D03*
X411778Y736600D02*
G54D10*
D03*
X442954Y736600D02*
G54D10*
D03*
X411778Y762000D02*
G54D10*
D03*
X442954Y762000D02*
G54D10*
D03*
X577850Y800100D02*
G54D11*
D03*
X609203Y800100D02*
G54D11*
D03*
X690563Y802481D02*
G54D11*
D03*
X721916Y802481D02*
G54D11*
D03*
X488156Y711200D02*
G54D11*
D03*
X519510Y711200D02*
G54D11*
D03*
X488376Y685800D02*
G54D10*
D03*
X519550Y685800D02*
G54D10*
D03*
X576482Y727868D02*
G54D10*
D03*
X607657Y727868D02*
G54D10*
D03*
X576660Y697309D02*
G54D11*
D03*
X608013Y697309D02*
G54D11*
D03*
X576660Y669528D02*
G54D11*
D03*
X608013Y669528D02*
G54D11*
D03*
X577672Y640953D02*
G54D10*
D03*
X608847Y640953D02*
G54D10*
D03*
X488772Y622300D02*
G54D10*
D03*
X519947Y622300D02*
G54D10*
D03*
X489566Y588168D02*
G54D10*
D03*
X520741Y588168D02*
G54D10*
D03*
X332978Y562372D02*
G54D10*
D03*
X364154Y562372D02*
G54D10*
D03*
X431602Y529828D02*
G54D11*
D03*
X462955Y529828D02*
G54D11*
D03*
X489942Y529828D02*
G54D11*
D03*
X521296Y529828D02*
G54D11*
D03*
X579041Y609600D02*
G54D11*
D03*
X610394Y609600D02*
G54D11*
D03*
X579041Y581818D02*
G54D11*
D03*
X610394Y581818D02*
G54D11*
D03*
X579260Y550068D02*
G54D10*
D03*
X610435Y550068D02*
G54D10*
D03*
X233363Y425450D02*
G54D10*
D03*
X264538Y425450D02*
G54D10*
D03*
X233760Y372268D02*
G54D10*
D03*
X264935Y372268D02*
G54D10*
D03*
X309960Y462359D02*
G54D10*
D03*
X341135Y462359D02*
G54D10*
D03*
X386160Y462756D02*
G54D10*
D03*
X417335Y462756D02*
G54D10*
D03*
X352624Y409575D02*
G54D11*
D03*
X383977Y409575D02*
G54D11*
D03*
X407988Y409178D02*
G54D10*
D03*
X439163Y409178D02*
G54D10*
D03*
X463550Y457596D02*
G54D10*
D03*
X494726Y457596D02*
G54D10*
D03*
X551657Y465931D02*
G54D10*
D03*
X582832Y465931D02*
G54D10*
D03*
X666969Y676672D02*
G54D10*
D03*
X698144Y676672D02*
G54D10*
D03*
X666969Y650081D02*
G54D10*
D03*
X698144Y650081D02*
G54D10*
D03*
X665956Y622300D02*
G54D11*
D03*
X697310Y622300D02*
G54D11*
D03*
X666353Y593725D02*
G54D11*
D03*
X697706Y593725D02*
G54D11*
D03*
X689988Y540940D02*
G54D10*
D03*
X721163Y540940D02*
G54D10*
D03*
X689988Y513159D02*
G54D10*
D03*
X721163Y513159D02*
G54D10*
D03*
X689194Y484187D02*
G54D10*
D03*
X720369Y484187D02*
G54D10*
D03*
X756266Y685800D02*
G54D10*
D03*
X787441Y685800D02*
G54D10*
D03*
X756266Y658018D02*
G54D10*
D03*
X787441Y658018D02*
G54D10*
D03*
X756266Y629840D02*
G54D10*
D03*
X787441Y629840D02*
G54D10*
D03*
X770157Y598884D02*
G54D10*
D03*
X801332Y598884D02*
G54D10*
D03*
X819369Y671512D02*
G54D10*
D03*
X850544Y671512D02*
G54D10*
D03*
X819369Y639762D02*
G54D10*
D03*
X850544Y639762D02*
G54D10*
D03*
X819766Y547687D02*
G54D10*
D03*
X850941Y547687D02*
G54D10*
D03*
X757060Y542131D02*
G54D10*
D03*
X788235Y542131D02*
G54D10*
D03*
X758032Y513159D02*
G54D11*
D03*
X789384Y513159D02*
G54D11*
D03*
X889000Y500856D02*
G54D11*
D03*
X920353Y500856D02*
G54D11*
D03*
X751285Y762793D02*
G54D11*
D03*
X782638Y762793D02*
G54D11*
D03*
X821928Y762793D02*
G54D11*
D03*
X853281Y762793D02*
G54D11*
D03*
X750888Y835818D02*
G54D11*
D03*
X782241Y835818D02*
G54D11*
D03*
X821531Y835818D02*
G54D11*
D03*
X852884Y835818D02*
G54D11*
D03*
X471091Y408781D02*
G54D10*
D03*
X502266Y408781D02*
G54D10*
D03*
X494705Y367506D02*
G54D11*
D03*
X526058Y367506D02*
G54D11*
D03*
X291505Y307181D02*
G54D11*
D03*
X322858Y307181D02*
G54D11*
D03*
X291505Y244078D02*
G54D11*
D03*
X322858Y244078D02*
G54D11*
D03*
X552649Y267096D02*
G54D11*
D03*
X584002Y267096D02*
G54D11*
D03*
X522288Y168672D02*
G54D10*
D03*
X553463Y168672D02*
G54D10*
D03*
X227013Y140096D02*
G54D10*
D03*
X258188Y140096D02*
G54D10*
D03*
X290335Y140096D02*
G54D10*
D03*
X321510Y140096D02*
G54D10*
D03*
X346274Y140096D02*
G54D11*
D03*
X377627Y140096D02*
G54D11*
D03*
X404614Y140096D02*
G54D11*
D03*
X435967Y140096D02*
G54D11*
D03*
X322263Y94853D02*
G54D10*
D03*
X353438Y94853D02*
G54D10*
D03*
X322263Y65484D02*
G54D10*
D03*
X353438Y65484D02*
G54D10*
D03*
X322263Y36512D02*
G54D10*
D03*
X353438Y36512D02*
G54D10*
D03*
X322263Y7144D02*
G54D10*
D03*
X353438Y7144D02*
G54D10*
D03*
X156369Y-342504D02*
G54D10*
D03*
X187544Y-342504D02*
G54D10*
D03*
X156369Y-381000D02*
G54D10*
D03*
X187544Y-381000D02*
G54D10*
D03*
X322064Y-342106D02*
G54D11*
D03*
X353418Y-342106D02*
G54D11*
D03*
X526058Y-341710D02*
G54D11*
D03*
X557411Y-341710D02*
G54D11*
D03*
X729258Y-341313D02*
G54D11*
D03*
X760611Y-341313D02*
G54D11*
D03*
X726678Y-307578D02*
G54D10*
D03*
X757854Y-307578D02*
G54D10*
D03*
X931664Y-341710D02*
G54D11*
D03*
X963018Y-341710D02*
G54D11*
D03*
X271264Y-406004D02*
G54D11*
D03*
X302618Y-406004D02*
G54D11*
D03*
X271066Y-437754D02*
G54D10*
D03*
X302241Y-437754D02*
G54D10*
D03*
X271066Y-469504D02*
G54D10*
D03*
X302241Y-469504D02*
G54D10*
D03*
X105768Y-603250D02*
G54D11*
D03*
X137120Y-603250D02*
G54D11*
D03*
X257374Y-659606D02*
G54D11*
D03*
X288727Y-659606D02*
G54D11*
D03*
X346869Y-602456D02*
G54D10*
D03*
X378044Y-602456D02*
G54D10*
D03*
X428228Y-481410D02*
G54D10*
D03*
X459404Y-481410D02*
G54D10*
D03*
X489566Y-481410D02*
G54D10*
D03*
X520741Y-481410D02*
G54D10*
D03*
X493118Y-579438D02*
G54D11*
D03*
X524470Y-579438D02*
G54D11*
D03*
X1136869Y597296D02*
G54D10*
D03*
X1168044Y597296D02*
G54D10*
D03*
X1136869Y559593D02*
G54D10*
D03*
X1168044Y559593D02*
G54D10*
D03*
X1138635Y321865D02*
G54D11*
D03*
X1169988Y321865D02*
G54D11*
D03*
X1289269Y255190D02*
G54D10*
D03*
X1320444Y255190D02*
G54D10*
D03*
X1289269Y223440D02*
G54D10*
D03*
X1320444Y223440D02*
G54D10*
D03*
X1289447Y172640D02*
G54D11*
D03*
X1320800Y172640D02*
G54D11*
D03*
X1289447Y146844D02*
G54D11*
D03*
X1320800Y146844D02*
G54D11*
D03*
X1213069Y96044D02*
G54D10*
D03*
X1244244Y96044D02*
G54D10*
D03*
X1213069Y64690D02*
G54D10*
D03*
X1244244Y64690D02*
G54D10*
D03*
X1290063Y96440D02*
G54D10*
D03*
X1321238Y96440D02*
G54D10*
D03*
X1213069Y32940D02*
G54D10*
D03*
X1244244Y32940D02*
G54D10*
D03*
X1213069Y794D02*
G54D10*
D03*
X1244244Y794D02*
G54D10*
D03*
X1213069Y-30560D02*
G54D10*
D03*
X1244244Y-30560D02*
G54D10*
D03*
X1213069Y-62706D02*
G54D10*
D03*
X1244244Y-62706D02*
G54D10*
D03*
X1213069Y-94060D02*
G54D10*
D03*
X1244244Y-94060D02*
G54D10*
D03*
X1130519Y-37306D02*
G54D10*
D03*
X1161694Y-37306D02*
G54D10*
D03*
X1130697Y71040D02*
G54D11*
D03*
X1162050Y71040D02*
G54D11*
D03*
X1289666Y32940D02*
G54D10*
D03*
X1320841Y32940D02*
G54D10*
D03*
X1366263Y96044D02*
G54D10*
D03*
X1397438Y96044D02*
G54D10*
D03*
X1366263Y64690D02*
G54D10*
D03*
X1397438Y64690D02*
G54D10*
D03*
X1366263Y32940D02*
G54D10*
D03*
X1397438Y32940D02*
G54D10*
D03*
X1366263Y-1191D02*
G54D10*
D03*
X1397438Y-1191D02*
G54D10*
D03*
X1289666Y-61913D02*
G54D10*
D03*
X1320841Y-61913D02*
G54D10*
D03*
X1367454Y-63500D02*
G54D10*
D03*
X1398628Y-63500D02*
G54D10*
D03*
X1367454Y-92472D02*
G54D10*
D03*
X1398628Y-92472D02*
G54D10*
D03*
X1302544Y-125413D02*
G54D11*
D03*
X1333897Y-125413D02*
G54D11*
D03*
X1302544Y-151210D02*
G54D11*
D03*
X1333897Y-151210D02*
G54D11*
D03*
X1219419Y-240110D02*
G54D10*
D03*
X1250594Y-240110D02*
G54D10*
D03*
X1161476Y-240110D02*
G54D11*
D03*
X1192828Y-240110D02*
G54D11*
D03*
X1161476Y-290116D02*
G54D11*
D03*
X1192828Y-290116D02*
G54D11*
D03*
X1442463Y-290513D02*
G54D11*
D03*
X1473816Y-290513D02*
G54D11*
D03*
X1482150Y-154385D02*
G54D10*
D03*
X1513325Y-154385D02*
G54D10*
D03*
X1608535Y-147638D02*
G54D11*
D03*
X1639888Y-147638D02*
G54D11*
D03*
X1710134Y-147638D02*
G54D11*
D03*
X1741488Y-147638D02*
G54D11*
D03*
X1442860Y179387D02*
G54D10*
D03*
X1474035Y179387D02*
G54D10*
D03*
X1442860Y146446D02*
G54D10*
D03*
X1474035Y146446D02*
G54D10*
D03*
X1442860Y109537D02*
G54D10*
D03*
X1474035Y109537D02*
G54D10*
D03*
X1519060Y44846D02*
G54D10*
D03*
X1550235Y44846D02*
G54D10*
D03*
X1442860Y20637D02*
G54D11*
D03*
X1474213Y20637D02*
G54D11*
D03*
X1519060Y-794D02*
G54D10*
D03*
X1550235Y-794D02*
G54D10*
D03*
X1709957Y14684D02*
G54D10*
D03*
X1741132Y14684D02*
G54D10*
D03*
X1607939Y-21035D02*
G54D11*
D03*
X1639292Y-21035D02*
G54D11*
D03*
X1709936Y-21035D02*
G54D11*
D03*
X1741289Y-21035D02*
G54D11*
D03*
X1607542Y-274241D02*
G54D11*
D03*
X1638895Y-274241D02*
G54D11*
D03*
X1709936Y-274241D02*
G54D11*
D03*
X1741289Y-274241D02*
G54D11*
D03*
X1962745Y-727076D02*
G54D11*
D03*
X1994098Y-727076D02*
G54D11*
D03*
X2045692Y-727076D02*
G54D11*
D03*
X2077045Y-727076D02*
G54D11*
D03*
X1994892Y-581422D02*
G54D11*
D03*
X2026245Y-581422D02*
G54D11*
D03*
X2099667Y-498872D02*
G54D11*
D03*
X2131020Y-498872D02*
G54D11*
D03*
X1994098Y-486172D02*
G54D11*
D03*
X2025451Y-486172D02*
G54D11*
D03*
X1995686Y-416322D02*
G54D11*
D03*
X2027038Y-416322D02*
G54D11*
D03*
X1606352Y106362D02*
G54D11*
D03*
X1637705Y106362D02*
G54D11*
D03*
X1709936Y106362D02*
G54D11*
D03*
X1741289Y106362D02*
G54D11*
D03*
X1607939Y232965D02*
G54D11*
D03*
X1639292Y232965D02*
G54D11*
D03*
X1711524Y233362D02*
G54D11*
D03*
X1742877Y233362D02*
G54D11*
D03*
X1710750Y268684D02*
G54D10*
D03*
X1741925Y268684D02*
G54D10*
D03*
X1607939Y357187D02*
G54D11*
D03*
X1639292Y357187D02*
G54D11*
D03*
X1710333Y357187D02*
G54D11*
D03*
X1741686Y357187D02*
G54D11*
D03*
X1609130Y486568D02*
G54D11*
D03*
X1640483Y486568D02*
G54D11*
D03*
X1710333Y486568D02*
G54D11*
D03*
X1741686Y486568D02*
G54D11*
D03*
X1352352Y443309D02*
G54D11*
D03*
X1383705Y443309D02*
G54D11*
D03*
X1276946Y572690D02*
G54D11*
D03*
X1308298Y572690D02*
G54D11*
D03*
X1398389Y617140D02*
G54D11*
D03*
X1429742Y617140D02*
G54D11*
D03*
X1339652Y617140D02*
G54D11*
D03*
X1371005Y617140D02*
G54D11*
D03*
X1503958Y550068D02*
G54D11*
D03*
X1535311Y550068D02*
G54D11*
D03*
X1504772Y585390D02*
G54D10*
D03*
X1535947Y585390D02*
G54D10*
D03*
X1607939Y611584D02*
G54D11*
D03*
X1639292Y611584D02*
G54D11*
D03*
X1709936Y611584D02*
G54D11*
D03*
X1741289Y611584D02*
G54D11*
D03*
X1875454Y548084D02*
G54D10*
D03*
X1906628Y548084D02*
G54D10*
D03*
X1875454Y515937D02*
G54D10*
D03*
X1906628Y515937D02*
G54D10*
D03*
X1875454Y484187D02*
G54D10*
D03*
X1906628Y484187D02*
G54D10*
D03*
X1875454Y452437D02*
G54D10*
D03*
X1906628Y452437D02*
G54D10*
D03*
X1876247Y319484D02*
G54D10*
D03*
X1907422Y319484D02*
G54D10*
D03*
X1876247Y287337D02*
G54D10*
D03*
X1907422Y287337D02*
G54D10*
D03*
X1876247Y255587D02*
G54D10*
D03*
X1907422Y255587D02*
G54D10*
D03*
X1876247Y223837D02*
G54D10*
D03*
X1907422Y223837D02*
G54D10*
D03*
X1875454Y65881D02*
G54D10*
D03*
X1906628Y65881D02*
G54D10*
D03*
X1875454Y33734D02*
G54D10*
D03*
X1906628Y33734D02*
G54D10*
D03*
X1875454Y1984D02*
G54D10*
D03*
X1906628Y1984D02*
G54D10*
D03*
X1875454Y-29766D02*
G54D10*
D03*
X1906628Y-29766D02*
G54D10*
D03*
X1875850Y-111919D02*
G54D10*
D03*
X1907025Y-111919D02*
G54D10*
D03*
X1875850Y-144066D02*
G54D10*
D03*
X1907025Y-144066D02*
G54D10*
D03*
X1875850Y-175816D02*
G54D10*
D03*
X1907025Y-175816D02*
G54D10*
D03*
X1875850Y-207566D02*
G54D10*
D03*
X1907025Y-207566D02*
G54D10*
D03*
X1875850Y-238919D02*
G54D10*
D03*
X1907025Y-238919D02*
G54D10*
D03*
X1977430Y548481D02*
G54D11*
D03*
X2008783Y548481D02*
G54D11*
D03*
X1977430Y516731D02*
G54D11*
D03*
X2008783Y516731D02*
G54D11*
D03*
X1977430Y484584D02*
G54D11*
D03*
X2008783Y484584D02*
G54D11*
D03*
X1977430Y454422D02*
G54D11*
D03*
X2008783Y454422D02*
G54D11*
D03*
X1976239Y322262D02*
G54D11*
D03*
X2007592Y322262D02*
G54D11*
D03*
X1976239Y288131D02*
G54D11*
D03*
X2007592Y288131D02*
G54D11*
D03*
X1976239Y256778D02*
G54D11*
D03*
X2007592Y256778D02*
G54D11*
D03*
X1976239Y223837D02*
G54D11*
D03*
X2007592Y223837D02*
G54D11*
D03*
X1975842Y65881D02*
G54D11*
D03*
X2007195Y65881D02*
G54D11*
D03*
X1975842Y34131D02*
G54D11*
D03*
X2007195Y34131D02*
G54D11*
D03*
X1975842Y2381D02*
G54D11*
D03*
X2007195Y2381D02*
G54D11*
D03*
X1975842Y-28972D02*
G54D11*
D03*
X2007195Y-28972D02*
G54D11*
D03*
X1975446Y-143272D02*
G54D11*
D03*
X2006798Y-143272D02*
G54D11*
D03*
X1975446Y-175022D02*
G54D11*
D03*
X2006798Y-175022D02*
G54D11*
D03*
X1975446Y-207169D02*
G54D11*
D03*
X2006798Y-207169D02*
G54D11*
D03*
X1975446Y-238126D02*
G54D11*
D03*
X2006798Y-238126D02*
G54D11*
D03*
X1416646Y763190D02*
G54D11*
D03*
X1447998Y763190D02*
G54D11*
D03*
X1416646Y706437D02*
G54D11*
D03*
X1447998Y706437D02*
G54D11*
D03*
X1505546Y790178D02*
G54D11*
D03*
X1536898Y790178D02*
G54D11*
D03*
X1505546Y760809D02*
G54D11*
D03*
X1536898Y760809D02*
G54D11*
D03*
X1505546Y731440D02*
G54D11*
D03*
X1536898Y731440D02*
G54D11*
D03*
X1575395Y790178D02*
G54D11*
D03*
X1606748Y790178D02*
G54D11*
D03*
X1575395Y760809D02*
G54D11*
D03*
X1606748Y760809D02*
G54D11*
D03*
X1575395Y731440D02*
G54D11*
D03*
X1606748Y731440D02*
G54D11*
D03*
X1654373Y790178D02*
G54D11*
D03*
X1685726Y790178D02*
G54D11*
D03*
X1654373Y760809D02*
G54D11*
D03*
X1685726Y760809D02*
G54D11*
D03*
X1654373Y731440D02*
G54D11*
D03*
X1685726Y731440D02*
G54D11*
D03*
X1725017Y790972D02*
G54D11*
D03*
X1756370Y790972D02*
G54D11*
D03*
X1725017Y761603D02*
G54D11*
D03*
X1756370Y761603D02*
G54D11*
D03*
X1725017Y732234D02*
G54D11*
D03*
X1756370Y732234D02*
G54D11*
D03*
X1869083Y738584D02*
G54D11*
D03*
X1900436Y738584D02*
G54D11*
D03*
X1869104Y712390D02*
G54D10*
D03*
X1900278Y712390D02*
G54D10*
D03*
X1933000Y713978D02*
G54D10*
D03*
X1964175Y713978D02*
G54D10*
D03*
X1933000Y686990D02*
G54D10*
D03*
X1964175Y686990D02*
G54D10*
D03*
X1933000Y661193D02*
G54D10*
D03*
X1964175Y661193D02*
G54D10*
D03*
X1990130Y715168D02*
G54D11*
D03*
X2021482Y715168D02*
G54D11*
D03*
X1990130Y687784D02*
G54D11*
D03*
X2021482Y687784D02*
G54D11*
D03*
X1990130Y662384D02*
G54D11*
D03*
X2021482Y662384D02*
G54D11*
D03*
X1990547Y741362D02*
G54D10*
D03*
X2021722Y741362D02*
G54D10*
D03*
X2047676Y740568D02*
G54D11*
D03*
X2079029Y740568D02*
G54D11*
D03*
X2047676Y715168D02*
G54D11*
D03*
X2079029Y715168D02*
G54D11*
D03*
X2168723Y675481D02*
G54D11*
D03*
X2200076Y675481D02*
G54D11*
D03*
X2168347Y642937D02*
G54D10*
D03*
X2199522Y642937D02*
G54D10*
D03*
X2103239Y612378D02*
G54D11*
D03*
X2134592Y612378D02*
G54D11*
D03*
X2103239Y579834D02*
G54D11*
D03*
X2134592Y579834D02*
G54D11*
D03*
X1932604Y801687D02*
G54D10*
D03*
X1963778Y801687D02*
G54D10*
D03*
X1989972Y801687D02*
G54D10*
D03*
X2021147Y801687D02*
G54D10*
D03*
X2047738Y801687D02*
G54D10*
D03*
X2078913Y801687D02*
G54D10*
D03*
X2105620Y801687D02*
G54D11*
D03*
X2136972Y801687D02*
G54D11*
D03*
X2164754Y833834D02*
G54D11*
D03*
X2196107Y833834D02*
G54D11*
D03*
X2105998Y833834D02*
G54D11*
D03*
X2137351Y833834D02*
G54D11*
D03*
X2046861Y833834D02*
G54D11*
D03*
X2078204Y833834D02*
G54D11*
D03*
X1990108Y833834D02*
G54D11*
D03*
X2021451Y833834D02*
G54D11*
D03*
X1932958Y833834D02*
G54D11*
D03*
X1964301Y833834D02*
G54D11*
D03*
X1539315Y-254020D02*
G54D12*
D03*
X1499415Y-254020D02*
G54D12*
D03*
X2177470Y736798D02*
G54D13*
D03*
X2131426Y736798D02*
G54D13*
D03*
X2134210Y649089D02*
G54D13*
D03*
X2088167Y649089D02*
G54D13*
D03*
X1365860Y705048D02*
G54D13*
D03*
X1319817Y705048D02*
G54D13*
D03*
X1550804Y508595D02*
G54D13*
D03*
X1504760Y508595D02*
G54D13*
D03*
X1315457Y533995D02*
G54D13*
D03*
X1269414Y533995D02*
G54D13*
D03*
X1175360Y523279D02*
G54D13*
D03*
X1129317Y523279D02*
G54D13*
D03*
X1258704Y171648D02*
G54D13*
D03*
X1212660Y171648D02*
G54D13*
D03*
X1411501Y-144661D02*
G54D13*
D03*
X1365457Y-144661D02*
G54D13*
D03*
X2104840Y-417711D02*
G54D13*
D03*
X2058798Y-417711D02*
G54D13*
D03*
X527660Y761801D02*
G54D13*
D03*
X481616Y761801D02*
G54D13*
D03*
X616957Y761801D02*
G54D13*
D03*
X570914Y761801D02*
G54D13*
D03*
X705857Y760610D02*
G54D13*
D03*
X659814Y760610D02*
G54D13*
D03*
X697126Y714176D02*
G54D13*
D03*
X651082Y714176D02*
G54D13*
D03*
M02*
