; Drill file
; Format: 2.4 (00.0000)
M48
INCH
T01C0.0157
T02C0.0283
T03C0.0394
T04C0.0425
T05C0.0472
T06C0.063
T07C0.0709
T08C0.0827
T09C0.0945
T10C0.0984
T11C0.1378
%
G05
G90
T01
X004340Y-025770
X004330Y-024590
X011560Y-024940
X012380Y-026020
X011550Y-027950
X012750Y-023590
X015660Y-023640
X018370Y-022750
X021840Y-022750
X021940Y-023810
X021230Y-018920
X022340Y-016440
X022870Y-013400
X019310Y-015230
X018300Y-014210
X014770Y-013390
X012770Y-017190
X009910Y-015890
X009300Y-015610
X008730Y-015720
X008450Y-016310
X008110Y-014790
X008800Y-014660
X009610Y-015100
X008080Y-013450
X008510Y-012790
X009260Y-011060
X009510Y-010210
X011460Y-009970
X012110Y-008410
X012110Y-007410
X012110Y-006410
X012300Y-004410
X017190Y-001920
X017230Y-000470
X017230Y000130
X017230Y000730
X017080Y001330
X017080Y003310
X016480Y003620
X015530Y003580
X015000Y003890
X014690Y006580
X014000Y006560
X013410Y006560
X014030Y007330
X015160Y008210
X015980Y008530
X015620Y008980
X014930Y009440
X013520Y009640
X013450Y012120
X014020Y013710
X015380Y014080
X015870Y013770
X015870Y013120
X015870Y012480
X015870Y011880
X015870Y011210
X015870Y010620
X016470Y009850
X016970Y010020
X016920Y010620
X016920Y011210
X016920Y011880
X016920Y012480
X016920Y013120
X016910Y013770
X017270Y015230
X017860Y015470
X018520Y015310
X018720Y014520
X019520Y015330
X020270Y015380
X020870Y015520
X021250Y014500
X022880Y014970
X023320Y015980
X022930Y017610
X022020Y017370
X021280Y017370
X020410Y017330
X019270Y017170
X018590Y017140
X017730Y017270
X017060Y017660
X017530Y018190
X017160Y019120
X018160Y019060
X018960Y019060
X020530Y019660
X021480Y019860
X021880Y019360
X022370Y020270
X021720Y020920
X021270Y020520
X021920Y021820
X022020Y022770
X021910Y024160
X020610Y022020
X019880Y021520
X017310Y021560
X017370Y022630
X016860Y022970
X016880Y023590
X017820Y023670
X015870Y023580
X015300Y023880
X015300Y021380
X016080Y020890
X015800Y019010
X014310Y018230
X015160Y017130
X015810Y017120
X016480Y017140
X016560Y015520
X015200Y015420
X014630Y015090
X014020Y015450
X012720Y015480
X012410Y014930
X010390Y015340
X011160Y016610
X010670Y012120
X010200Y009690
X011250Y006340
X012230Y006420
X011780Y003620
X011780Y002640
X008680Y001990
X008080Y001990
X007980Y001400
X007970Y003670
X007860Y004280
X008630Y003780
X015480Y006580
X016560Y006560
X017220Y006560
X018140Y006830
X019030Y006580
X019730Y006580
X019780Y007690
X020380Y008030
X020730Y007420
X021330Y007380
X022440Y006590
X022530Y006080
X020780Y005080
X020480Y004520
X020280Y003970
X019640Y003780
X019450Y004330
X019230Y004870
X018690Y005030
X020030Y005080
X018830Y007780
X019130Y008330
X019580Y008890
X019580Y009480
X020770Y010620
X021220Y012470
X022840Y013520
X024680Y012710
X025080Y013160
X025490Y012020
X026870Y014060
X027560Y015520
X027160Y015920
X025340Y017560
X026300Y018860
X026300Y019460
X026390Y020200
X026390Y020860
X025610Y020860
X025230Y021520
X025890Y021560
X026170Y022140
X025140Y022370
X024940Y022970
X024730Y023560
X025400Y024170
X025030Y024600
X025140Y025210
X025160Y026200
X025540Y026700
X024730Y027410
X024800Y028060
X024870Y029020
X024830Y030030
X024830Y030970
X025230Y031880
X023110Y032310
X020160Y031170
X018390Y031920
X018120Y032480
X018060Y033160
X016810Y031120
X016160Y031180
X015500Y030910
X014950Y031080
X014270Y031080
X013840Y031530
X012770Y032550
X011230Y031050
X011250Y030070
X010270Y030030
X010250Y029070
X009640Y028770
X009020Y028760
X008900Y029380
X009240Y030210
X009340Y031430
X010270Y031170
X011260Y029060
X013370Y028550
X014270Y029570
X015110Y028890
X017380Y026720
X018260Y026410
X018770Y026050
X019760Y026060
X021160Y027770
X022000Y027470
X021880Y028360
X021440Y028880
X019860Y028770
X018270Y028220
X023330Y027970
X026710Y024010
X029060Y024850
X028960Y025650
X028320Y026050
X029020Y026610
X029230Y028050
X028620Y028700
X029160Y029200
X029780Y029400
X029820Y028710
X028610Y029550
X031590Y030030
X033230Y029090
X034110Y030750
X034910Y031550
X034910Y032340
X034910Y032940
X035720Y031350
X036330Y030550
X036320Y029730
X036320Y029150
X036730Y028550
X036730Y027940
X036730Y027340
X036730Y026730
X037340Y026330
X039440Y026020
X039940Y025520
X040340Y024920
X039950Y024050
X039440Y024530
X039440Y023530
X039940Y023050
X039440Y022530
X039940Y022080
X038690Y020280
X039610Y018940
X040190Y019170
X040800Y018940
X041280Y019330
X041840Y019620
X041810Y018940
X042940Y019380
X043860Y019030
X044340Y018720
X044840Y019190
X045550Y018670
X045910Y019170
X046450Y018870
X047340Y018980
X048090Y019170
X048140Y020130
X049140Y021030
X049340Y022530
X049340Y023550
X049330Y024530
X049330Y025530
X050340Y025130
X051090Y025450
X050750Y026520
X050950Y027730
X049340Y027720
X049330Y026720
X049330Y028750
X049360Y029720
X048140Y030340
X046940Y029130
X047140Y028030
X045340Y028030
X045340Y029420
X043340Y028030
X042340Y028940
X041830Y029440
X041340Y028940
X040830Y029420
X040330Y028940
X039860Y028550
X039440Y029050
X039950Y029440
X038640Y030050
X038340Y030550
X039450Y028030
X039950Y027520
X039440Y027020
X039950Y026530
X042530Y026380
X045340Y024550
X046980Y024640
X046970Y025520
X047160Y023530
X047140Y021940
X043950Y022120
X043280Y021670
X042550Y022120
X042890Y017940
X043500Y017530
X041750Y016190
X039940Y015640
X040140Y014640
X042170Y012730
X043450Y011640
X043970Y011190
X043410Y010890
X043250Y010280
X043250Y009550
X043880Y009590
X044060Y010190
X043270Y008330
X043270Y007720
X043620Y006410
X043470Y005840
X042720Y005660
X043830Y004250
X043830Y003640
X043780Y002800
X042780Y002940
X041500Y002450
X042780Y000160
X044270Y000340
X044270Y001340
X044110Y-000720
X044380Y-002450
X042720Y-001860
X042720Y-003170
X043730Y-004300
X044190Y-004840
X044780Y-005230
X045450Y-005140
X046000Y-005640
X046190Y-004500
X046880Y-003950
X046880Y-002950
X046170Y-002310
X046880Y-001950
X046880Y-000950
X046890Y000050
X046470Y000800
X046880Y001300
X046880Y002300
X046470Y002780
X046880Y003550
X046770Y005300
X046170Y005280
X048060Y005730
X049630Y005770
X050770Y005140
X051970Y005140
X052910Y003800
X051980Y002940
X051580Y002200
X050970Y002750
X050370Y002160
X049890Y001300
X050970Y-000800
X051560Y-000450
X051580Y-001140
X050370Y-001160
X049870Y-002450
X050880Y-003950
X051880Y-003950
X052720Y-004380
X052190Y-006780
X051330Y-006590
X050980Y-008340
X050830Y-009090
X050230Y-009810
X052800Y-009910
X052800Y-009080
X052800Y-008520
X054410Y-009810
X055800Y-010700
X055970Y-011420
X056810Y-012340
X056270Y-012840
X056620Y-013610
X055920Y-013750
X055310Y-013750
X054720Y-013750
X054110Y-013750
X053420Y-013890
X052770Y-013800
X052160Y-013340
X051640Y-013050
X055310Y-013140
X057720Y-013000
X058330Y-012840
X057870Y-012340
X058670Y-012190
X059380Y-012940
X058080Y-013800
X059080Y-010890
X058060Y-009660
X057860Y-009090
X058110Y-008450
X058610Y-008090
X058970Y-009090
X057560Y-010000
X057360Y-010640
X057110Y-006770
X055590Y-004580
X055800Y-002480
X056390Y-000450
X056050Y000800
X058750Y000800
X059000Y-000050
X058590Y-001500
X059000Y001750
X058550Y002910
X060190Y002550
X062580Y002750
X063390Y002750
X062370Y004140
X065370Y004140
X065370Y003330
X066580Y002950
X067270Y002950
X067980Y002950
X068980Y002340
X069390Y000950
X070200Y000950
X069390Y-000050
X069390Y-000860
X068800Y-002050
X067980Y-002050
X067390Y-002660
X066580Y-002660
X066050Y-003250
X065590Y-003660
X064980Y-003050
X064390Y-003050
X063780Y-003050
X064170Y-002450
X065390Y-001660
X065390Y-000840
X066230Y000160
X065590Y001360
X062410Y-000840
X062410Y-005840
X062410Y-006840
X063410Y-007030
X064000Y-007050
X063200Y-007840
X062610Y-008050
X064500Y-010000
X065410Y-009950
X066200Y-009660
X065390Y-010840
X065420Y-011640
X064410Y-012940
X062270Y-014250
X062390Y-010840
X065410Y-006640
X065420Y-005830
X069410Y-005840
X069410Y-005030
X069410Y-004050
X070410Y-007840
X069410Y-009060
X069420Y-010860
X070220Y-011140
X069440Y-013840
X073050Y-014420
X074250Y-013420
X075050Y-011630
X075440Y-010840
X074230Y-010840
X077470Y-010450
X079030Y-010270
X079730Y-007950
X079730Y-006950
X081450Y-006450
X081440Y-005470
X081470Y-007470
X079030Y-004950
X078440Y-004440
X078440Y-002250
X079440Y-002060
X079730Y000050
X079730Y001050
X079730Y002140
X081450Y002550
X081450Y001550
X081450Y000550
X081440Y004530
X081440Y005530
X079720Y008950
X079730Y010050
X079730Y011050
X079720Y012920
X082440Y012530
X082440Y011520
X082450Y010530
X081450Y009550
X085200Y011720
X084250Y012910
X084640Y013310
X085050Y013720
X085250Y014310
X085450Y014970
X085840Y015530
X086250Y016020
X086500Y016630
X086840Y014310
X086660Y013500
X082450Y016520
X082450Y017520
X083030Y018520
X082690Y019520
X084660Y020720
X084750Y022770
X084800Y023520
X084860Y024330
X083840Y023470
X083190Y023470
X083030Y026730
X084030Y026770
X081840Y026700
X080810Y025720
X080310Y026050
X080330Y027030
X080160Y030030
X081170Y030030
X081880Y029980
X082640Y029810
X083200Y030080
X082670Y029020
X084750Y030770
X085500Y031470
X085810Y032250
X086410Y030720
X086670Y028950
X083030Y033810
X082330Y033410
X080560Y033560
X079140Y030020
X077390Y030050
X077200Y030800
X076390Y030030
X076890Y029140
X075390Y028530
X075440Y027890
X074780Y026920
X073980Y026920
X074780Y026120
X072360Y026690
X070950Y027330
X070550Y026630
X069750Y026940
X069530Y025920
X068750Y025920
X067750Y025920
X066750Y025920
X065340Y025520
X064340Y025520
X063330Y025520
X062340Y025530
X061160Y025130
X061360Y024280
X062330Y024050
X062940Y022920
X063340Y022330
X062550Y022140
X061360Y022270
X061360Y021630
X061360Y023020
X063730Y023120
X064340Y023120
X065330Y023330
X065330Y024030
X064140Y022120
X065730Y021330
X065950Y020130
X065340Y019130
X065340Y018330
X066340Y018330
X069340Y018920
X069340Y019780
X070360Y020330
X070360Y020940
X070360Y022330
X069450Y024030
X070360Y024530
X074390Y023140
X078620Y024530
X079000Y022120
X079720Y020280
X079720Y019130
X079720Y018030
X075410Y013530
X073390Y015550
X070160Y015940
X069380Y014730
X069360Y013940
X067860Y012530
X067160Y012940
X066560Y012940
X065970Y012530
X065370Y013340
X065360Y014060
X064560Y012730
X063770Y012940
X063160Y012940
X063360Y012120
X062560Y012120
X060770Y011330
X059380Y010940
X059380Y011730
X059380Y012330
X060360Y013340
X060810Y013830
X060360Y014330
X059160Y014330
X058950Y016140
X059770Y016140
X059560Y016980
X059160Y017440
X058360Y017340
X057220Y017550
X057870Y016140
X056970Y014330
X056160Y014550
X055560Y014550
X054950Y014550
X053410Y015050
X052750Y014890
X052090Y014530
X050910Y015550
X049000Y015230
X048610Y014440
X048090Y014730
X047590Y014330
X047100Y014740
X046590Y014340
X046090Y014730
X045660Y014280
X045110Y014690
X044660Y014280
X044050Y014330
X043450Y014230
X043910Y012590
X044750Y012140
X046080Y012140
X047000Y010480
X047110Y009910
X046620Y009480
X046330Y008940
X046170Y008340
X045670Y007890
X046470Y007590
X049390Y008550
X049380Y009560
X049550Y010330
X050620Y007800
X052950Y010330
X053770Y010330
X054560Y010330
X054780Y008530
X054380Y007730
X055000Y005770
X055890Y005300
X055890Y004300
X053730Y005720
X052870Y002530
X052890Y001300
X049860Y003780
X048980Y-004640
X047730Y-004690
X047700Y-006670
X049020Y-006390
X047630Y-008750
X046980Y-008690
X047730Y-011440
X044980Y-011450
X040420Y-014780
X039310Y-014780
X038720Y-013450
X041090Y-019580
X040800Y-027000
X040700Y-028470
X033800Y-028420
X032780Y-028310
X032220Y-027810
X029130Y-028390
X027520Y-028410
X024410Y-028390
X028950Y-023020
X030970Y-023020
X031970Y-022810
X032450Y-022020
X031950Y-021220
X031360Y-021610
X031360Y-020810
X032160Y-020420
X031360Y-018190
X031050Y-015020
X031660Y-014560
X030700Y-013410
X031750Y-012110
X027810Y-012080
X028890Y-014910
X027660Y-018220
X033720Y-023020
X036540Y-006040
X036730Y-005030
X036950Y-004050
X036950Y-002430
X038250Y-002750
X038250Y-001440
X038000Y-000840
X037400Y-000980
X037040Y-000530
X037150Y000050
X037510Y000860
X037050Y001310
X037490Y002020
X037950Y002720
X034580Y003500
X031980Y003910
X030170Y003160
X029420Y003310
X028940Y003020
X028330Y003110
X029330Y001580
X029330Y000720
X029440Y-001030
X029130Y-002030
X027580Y-002830
X027120Y-001420
X027120Y-000420
X027120Y000580
X027020Y001480
X025160Y001580
X025310Y000580
X025310Y-000420
X023090Y-000020
X023090Y000980
X021090Y000980
X020280Y000980
X019480Y000980
X023100Y-001020
X031120Y-003280
X041060Y-002910
X034530Y007270
X035080Y008450
X033880Y009710
X032670Y009110
X032010Y010000
X031060Y009420
X032880Y008020
X035070Y011400
X035080Y012350
X034060Y013300
X032020Y012460
X031410Y011800
X030530Y012910
X030520Y013520
X029970Y013750
X030610Y017690
X030080Y017940
X030520Y018340
X030660Y019550
X032200Y019450
X032220Y020050
X033020Y018590
X033770Y018540
X034580Y017340
X033770Y016950
X033060Y016660
X032370Y017840
X029170Y018300
X029120Y019100
X029110Y020080
X029020Y020800
X028220Y018450
X024620Y021160
X024630Y021870
X023450Y020940
X021050Y018550
X022840Y009830
X023590Y009800
X022840Y008580
X017950Y009830
X017680Y009290
X017180Y008980
X016580Y008840
X011710Y021730
X011520Y022920
X011570Y023730
X011520Y025260
X010810Y026160
X011530Y026520
X009750Y026160
X008310Y024660
X008740Y024230
X008760Y023580
X007950Y023180
X008700Y021750
X007970Y019970
X006720Y024520
X005740Y024580
X004430Y024780
X004240Y024080
X006230Y027160
X007020Y028420
X005940Y030020
X006230Y030580
X007140Y032700
X006230Y033070
X006230Y034080
X009240Y033570
X004480Y028290
X020750Y036940
X031550Y032940
X031410Y027850
X032030Y027380
X031610Y024730
X032150Y023960
X032570Y024430
X032610Y023450
X032200Y023050
X034770Y021670
X034730Y020950
X036220Y019050
X037140Y019090
X037030Y019970
X036120Y023030
X035930Y023750
X035120Y023740
X035130Y024540
X039890Y018190
X039550Y010660
X039750Y010090
X039390Y009500
X052140Y012730
X052750Y012730
X053360Y012730
X053950Y012730
X054560Y012730
X057370Y011020
X057780Y011470
X058780Y009940
X058780Y008940
X058190Y008940
X060170Y009550
X060080Y007730
X062370Y007340
X062580Y008160
X062370Y009140
X063970Y007550
X064560Y007550
X065370Y007750
X065370Y008340
X065370Y009160
X066170Y007950
X066770Y007950
X065970Y007160
X068390Y007950
X069170Y007750
X069380Y009140
X070370Y010120
X069380Y010920
X069390Y005940
X069980Y004940
X069390Y004140
X070190Y003730
X073410Y004120
X073200Y007550
X075230Y-002950
X075190Y-003700
X076860Y-012940
X078550Y-015550
X080200Y-015550
X081020Y-015360
X083860Y-015520
X085060Y-016410
X086660Y-014280
X083660Y-013250
X083250Y-012250
X082660Y-012640
X082660Y-011640
X083660Y-011660
X085220Y-010470
X085200Y-005800
X086860Y001720
X084720Y-019700
X081980Y-019700
X080530Y-019170
X077830Y-019190
X077860Y-020020
X078220Y-022030
X080250Y-022050
X075670Y-018690
X075230Y-018050
X076690Y-028690
X079270Y-028690
X060270Y-006090
X062370Y014140
X061770Y014950
X061170Y015340
X061770Y015730
X062340Y015730
X062340Y018330
X062340Y019130
X061660Y018870
X061080Y018910
X061950Y019940
X062300Y020580
X058160Y020130
X057160Y020110
X057340Y021270
X057340Y022780
X057340Y023530
X057340Y024270
X058230Y025170
X058940Y025190
X059590Y025080
X060340Y025520
X060140Y026120
X059550Y026120
X058940Y026120
X057800Y026160
X057780Y026770
X056940Y026720
X056940Y026120
X056120Y026920
X055330Y026000
X053980Y026170
X053340Y026310
X052530Y026520
X053840Y025130
X053550Y023330
X053550Y022050
X052750Y020530
X051140Y019330
X050340Y019920
X050730Y017530
X051480Y017520
X053300Y018280
X054340Y018280
X056140Y019520
X050940Y023530
X051530Y024300
X054810Y028120
X055030Y029030
X054830Y029920
X054170Y029380
X053520Y029130
X051530Y029940
X051920Y030730
X049780Y032220
X055330Y031730
X056120Y031730
X056140Y030940
X057130Y031330
X057730Y029920
X059780Y030330
X059830Y029380
X059610Y028090
X061200Y028800
X061200Y029920
X062590Y030280
X062630Y029380
X064000Y028800
X064580Y027940
X063090Y027940
X064000Y029950
X064000Y031110
X064480Y031940
X065170Y031980
X065620Y033230
X066620Y033230
X067220Y032520
X066880Y031830
X067580Y031800
X068080Y033220
X069110Y033230
X069910Y030950
X069910Y029970
X069910Y028800
X068480Y029330
X068380Y030280
X067050Y029940
X067050Y028780
X065670Y029330
X065610Y030340
X063230Y031940
X062580Y033220
X061530Y033220
X060690Y032520
X060840Y031920
X061440Y031920
X060090Y033230
X059080Y033220
X058890Y031970
X057730Y027720
X072550Y029480
X073970Y030340
X075310Y030750
X075280Y032340
X075280Y033120
X016090Y-018940
X009750Y-018450
T02
X012440Y020780
X014440Y020780
X071420Y020520
X071420Y019520
X071420Y018520
X071420Y017520
X071420Y016520
X071420Y015520
X071420Y014520
X071420Y013520
X071420Y012520
X071420Y011520
X071420Y010520
X071420Y009520
X071420Y008520
X072420Y009020
X072420Y010020
X072420Y011020
X072420Y012020
X072420Y013020
X072420Y014020
X072420Y015020
X072420Y016020
X072420Y017020
X072420Y018020
X072420Y019020
X072420Y020020
X072420Y021020
X072420Y022020
X072420Y023020
X072420Y024020
X072420Y025020
X071420Y024520
X071420Y023520
X071420Y022520
X071420Y021520
X076410Y018530
X076410Y017530
X076410Y016530
X076410Y015530
X076410Y014530
X076410Y013530
X076410Y012530
X076410Y011530
X076410Y010530
X076410Y009530
X076410Y008530
X076410Y007530
X076410Y006530
X076410Y005530
X076410Y004530
X076410Y003530
X076410Y002530
X076410Y001530
X076410Y000530
X076410Y-000470
X076410Y-001470
X076410Y-002470
X076410Y-003470
X076410Y-004470
X076410Y-005470
X076410Y-006470
X076410Y-007470
X076410Y-008470
X076410Y-009470
X076410Y-010470
X080410Y-010470
X080410Y-009470
X080410Y-008470
X080410Y-007470
X080410Y-006470
X080410Y-005470
X080410Y-004470
X080410Y-003470
X080410Y-002470
X080410Y-001470
X080410Y-000470
X080410Y000530
X080410Y001530
X080410Y002530
X080410Y003530
X080410Y004530
X080410Y005530
X080410Y006530
X080410Y007530
X080410Y008530
X080410Y009530
X080410Y010530
X080410Y011530
X080410Y012530
X080410Y013530
X080410Y014530
X080410Y015530
X080410Y016530
X080410Y017530
X080410Y018530
X072420Y006020
X072420Y005020
X072420Y004020
X072420Y003020
X072420Y002020
X072420Y001020
X072420Y000020
X072420Y-000980
X072420Y-001980
X072420Y-002980
X072420Y-003980
X072420Y-004980
X072420Y-005980
X072420Y-006980
X072420Y-007980
X072420Y-008980
X072420Y-009980
X071420Y-010480
X071420Y-009480
X071420Y-008480
X071420Y-007480
X071420Y-006480
X071420Y-005480
X071420Y-004480
X071420Y-003480
X071420Y-002480
X071420Y-001480
X071420Y-000480
X071420Y000520
X071420Y001520
X071420Y002520
X071420Y003520
X071420Y004520
X071420Y005520
T03
X013980Y-026830
X013980Y-025830
X014980Y-025830
X014980Y-026830
X015980Y-026830
X016980Y-026830
X016980Y-025830
X015980Y-025830
X017980Y-025830
X017980Y-026830
X018980Y-026830
X019980Y-026830
X019980Y-025830
X020980Y-025830
X020980Y-026830
X021980Y-026830
X021980Y-025830
X022980Y-025830
X022980Y-026830
X023980Y-026830
X023980Y-025830
X024980Y-025830
X025980Y-025830
X025980Y-026830
X024980Y-026830
X026980Y-026830
X026980Y-025830
X027980Y-025830
X027980Y-026830
X028980Y-026830
X028980Y-025830
X029980Y-025830
X029980Y-026830
X030980Y-026830
X030980Y-025830
X031980Y-025830
X031980Y-026830
X032980Y-026830
X032980Y-025830
X033980Y-025830
X033980Y-026830
X034980Y-026830
X034980Y-025830
X035980Y-025830
X035980Y-026830
X036980Y-026830
X036980Y-025830
X037980Y-025830
X037980Y-026830
X040370Y-013470
X040370Y-012470
X040370Y-011470
X040370Y-010470
X040370Y-009470
X040370Y-008470
X040370Y-007470
X040370Y-006470
X040370Y-005470
X040370Y-004470
X040370Y-003470
X040370Y-002470
X040370Y-001470
X040370Y-000470
X040370Y000530
X040370Y001530
X036560Y005330
X035560Y005330
X035560Y006330
X036560Y006330
X036560Y007330
X036560Y008330
X036560Y009330
X036560Y010330
X037560Y010330
X037560Y009330
X037560Y008330
X037560Y007330
X037560Y006330
X034560Y006330
X033560Y006330
X032560Y006330
X031560Y006330
X030560Y006330
X029560Y006330
X028560Y006330
X028560Y007330
X028560Y008330
X028560Y009330
X028560Y010330
X028560Y011330
X028560Y012330
X028560Y013330
X028560Y014330
X028560Y015330
X029560Y015330
X030560Y015330
X030560Y014330
X029560Y014330
X027560Y014330
X027560Y013330
X027560Y012330
X027560Y011330
X027560Y010330
X027560Y009330
X027560Y008330
X027560Y007330
X027560Y006330
X028560Y005330
X029560Y005330
X030560Y005330
X031560Y005330
X032560Y005330
X033560Y005330
X034560Y005330
X034370Y001530
X034370Y000530
X034370Y-000470
X034370Y-001470
X034370Y-002470
X034370Y-003470
X034370Y-004470
X034370Y-005470
X034370Y-006470
X034370Y-007470
X034370Y-008470
X034370Y-009470
X034370Y-010470
X034370Y-011470
X034370Y-012470
X034370Y-013470
X032310Y-013470
X032310Y-012470
X032310Y-011470
X032310Y-010470
X032310Y-009470
X032310Y-008470
X032310Y-007470
X032310Y-006470
X032310Y-005470
X032310Y-004470
X032310Y-003470
X032310Y-002470
X032310Y-001470
X032310Y-000470
X032310Y000530
X032310Y001530
X026310Y001530
X026310Y000530
X026310Y-000470
X026310Y-001470
X026310Y-002470
X026310Y-003470
X026310Y-004470
X026310Y-005470
X026310Y-006470
X026310Y-007470
X026310Y-008470
X026310Y-009470
X026310Y-010470
X026310Y-011470
X026310Y-012470
X026310Y-013470
X024310Y-013470
X024310Y-012470
X024310Y-011470
X024310Y-010470
X024310Y-009470
X024310Y-008470
X024310Y-007470
X024310Y-006470
X024310Y-005470
X024310Y-004470
X024310Y-003470
X024310Y-002470
X024310Y-001470
X024310Y-000470
X024310Y000530
X024310Y001530
X018310Y001530
X018310Y000530
X018310Y-000470
X018310Y-001470
X018310Y-002470
X018310Y-003470
X018310Y-004470
X018310Y-005470
X018310Y-006470
X018310Y-007470
X018310Y-008470
X018310Y-009470
X018310Y-010470
X018310Y-011470
X018310Y-012470
X018310Y-013470
X016310Y-013470
X016310Y-012470
X016310Y-011470
X016310Y-010470
X016310Y-009470
X016310Y-008470
X016310Y-007470
X016310Y-006470
X016310Y-005470
X016310Y-004470
X016310Y-003470
X016310Y-002470
X016310Y-001470
X016310Y-000470
X016310Y000530
X016310Y001530
X010310Y001530
X010310Y000530
X010310Y-000470
X010310Y-001470
X010310Y-002470
X010310Y-003470
X010310Y-004470
X010310Y-005470
X010310Y-006470
X010310Y-007470
X010310Y-008470
X010310Y-009470
X010310Y-010470
X010310Y-011470
X010310Y-012470
X010310Y-013470
X006640Y-010440
X006640Y-009440
X006640Y-008440
X006640Y-007440
X006640Y-006440
X006640Y-005440
X006640Y-004440
X006640Y-003440
X006640Y-002440
X006640Y-001440
X006640Y-000440
X006640Y000560
X006640Y001560
X006640Y002560
X006640Y003560
X006640Y004560
X006640Y005560
X006640Y006560
X006640Y007560
X006640Y008560
X006640Y009560
X006640Y010560
X006640Y011560
X006640Y012560
X006640Y013560
X006640Y014560
X006640Y015560
X006640Y016560
X006640Y017560
X006640Y018560
X006640Y019560
X006640Y020560
X005640Y020560
X005640Y019560
X005640Y018560
X005640Y017560
X005640Y016560
X005640Y015560
X005640Y014560
X005640Y013560
X005640Y012560
X005640Y011560
X005640Y010560
X005640Y009560
X005640Y008560
X005640Y007560
X005640Y006560
X005640Y005560
X005640Y004560
X005640Y003560
X005640Y002560
X005640Y001560
X005640Y000560
X005640Y-000440
X005640Y-001440
X005640Y-002440
X005640Y-003440
X005640Y-004440
X005640Y-005440
X005640Y-006440
X005640Y-007440
X005640Y-008440
X004640Y-008440
X004640Y-007440
X004640Y-006440
X004640Y-005440
X004640Y-004440
X004640Y-003440
X004640Y-002440
X004640Y-001440
X004640Y-000440
X004640Y000560
X004640Y001560
X004640Y002560
X004640Y003560
X004640Y004560
X004640Y005560
X004640Y006560
X004640Y007560
X004640Y008560
X004640Y009560
X004640Y010560
X004640Y011560
X004640Y012560
X004640Y013560
X004640Y014560
X004640Y015560
X004640Y016560
X004640Y017560
X004640Y018560
X004640Y019560
X004640Y020560
X021670Y032880
X021700Y032880
X021740Y032880
X021780Y032880
X021820Y032880
X021860Y032880
X021900Y032880
X021940Y032880
X021980Y032880
X022020Y032880
X022420Y034350
X022450Y034350
X022490Y034350
X022530Y034350
X022570Y034350
X022610Y034350
X022650Y034350
X022690Y034350
X022730Y034350
X022770Y034350
X022020Y035130
X021980Y035130
X021940Y035130
X021900Y035130
X021860Y035130
X021820Y035130
X021780Y035130
X021740Y035130
X021700Y035130
X021670Y035130
X022420Y036570
X022450Y036570
X022490Y036570
X022530Y036570
X022570Y036570
X022610Y036570
X022650Y036570
X022690Y036570
X022730Y036570
X022770Y036570
X022020Y037510
X021980Y037510
X021940Y037510
X021900Y037510
X021860Y037510
X021820Y037510
X021780Y037510
X021740Y037510
X021700Y037510
X021670Y037510
X026420Y037510
X026450Y037510
X026490Y037510
X026530Y037510
X026570Y037510
X026610Y037510
X026650Y037510
X026690Y037510
X026730Y037510
X026770Y037510
X027170Y036570
X027200Y036570
X027240Y036570
X027280Y036570
X027320Y036570
X027360Y036570
X027400Y036570
X027440Y036570
X027480Y036570
X027520Y036570
X026770Y035130
X026730Y035130
X026690Y035130
X026650Y035130
X026610Y035130
X026570Y035130
X026530Y035130
X026490Y035130
X026450Y035130
X026420Y035130
X027170Y034350
X027200Y034350
X027240Y034350
X027280Y034350
X027320Y034350
X027360Y034350
X027400Y034350
X027440Y034350
X027480Y034350
X027520Y034350
X026770Y032880
X026730Y032880
X026690Y032880
X026650Y032880
X026610Y032880
X026570Y032880
X026530Y032880
X026490Y032880
X026450Y032880
X026420Y032880
X030720Y031500
X031720Y031500
X032720Y031500
X033720Y031500
X033720Y028500
X032720Y028500
X031720Y028500
X030720Y028500
X031220Y034560
X031220Y035540
X033820Y035540
X033820Y034560
X033870Y019910
X032870Y019910
X032560Y015330
X031560Y015330
X031560Y014330
X032560Y014330
X033560Y014330
X033560Y015330
X034560Y015330
X034560Y014330
X035560Y014330
X036560Y014330
X036560Y015330
X035560Y015330
X036560Y013330
X037560Y013330
X037560Y014330
X037560Y012330
X036560Y012330
X036560Y011330
X037560Y011330
X043410Y-008440
X043410Y-011440
X049410Y-011440
X049410Y-008440
X054420Y-008440
X054420Y-011440
X060420Y-011440
X060420Y-008440
X075900Y-025860
X075900Y-026860
X076900Y-026860
X076900Y-025860
X077900Y-025860
X078900Y-025860
X078900Y-026860
X077900Y-026860
X079900Y-026860
X080900Y-026860
X080900Y-025860
X079900Y-025860
X081900Y-025860
X082900Y-025860
X082900Y-026860
X081900Y-026860
X083900Y-026860
X083900Y-025860
X084900Y-025860
X084900Y-026860
X069050Y034560
X069050Y035540
X068260Y035540
X068030Y034560
X067240Y034560
X066450Y034560
X066450Y035540
X067240Y035540
X062500Y035540
X061720Y035540
X061480Y034560
X060690Y034560
X059910Y034560
X059910Y035540
X060690Y035540
X062500Y034560
X005640Y-009440
X005640Y-010440
X004640Y-010440
X004640Y-009440
X005740Y-020420
X006740Y-020420
X007740Y-020420
X008740Y-020420
X009740Y-020420
X009740Y-021420
X008740Y-021420
X007740Y-021420
X006740Y-021420
X005740Y-021420
X010740Y-021420
X011740Y-021420
X011740Y-020420
X010740Y-020420
X012740Y-020420
X012740Y-021420
X018980Y-025830
T04
X040320Y034570
X041410Y034570
X042490Y034570
X043580Y034570
X044680Y034570
X045770Y034570
X046860Y034570
X047950Y034570
X049040Y034570
X050120Y034570
X051210Y034570
X052310Y034570
X053400Y034570
X052860Y035690
X051770Y035690
X050680Y035690
X049580Y035690
X048490Y035690
X047410Y035690
X046320Y035690
X045230Y035690
X044140Y035690
X043080Y035690
X041960Y035690
X040860Y035690
T05
X018330Y-017440
X019330Y-017440
X020330Y-017440
X020330Y-016440
X019330Y-016440
X018330Y-016440
X023720Y-019450
X035340Y-019450
X039500Y-022020
X040500Y-022020
X041720Y-017200
X042720Y-017200
X043720Y-017200
X029360Y023530
X029860Y036460
X029860Y036500
X029860Y036540
X029860Y036580
X029860Y036620
X029860Y036660
X029860Y036700
X029860Y036740
X029860Y036780
X029860Y036820
X029860Y036860
X029860Y036890
X029860Y036930
X029860Y036970
X029860Y037010
X032240Y037050
X032280Y037050
X032320Y037050
X032360Y037050
X032400Y037050
X032440Y037050
X032470Y037050
X032510Y037050
X032550Y037050
X032590Y037050
X032630Y037050
X032670Y037050
X032710Y037050
X032750Y037050
X032790Y037050
X035170Y037010
X035170Y036970
X035170Y036930
X035170Y036890
X035170Y036860
X035170Y036820
X035170Y036780
X035170Y036740
X035170Y036700
X035170Y036660
X035170Y036620
X035170Y036580
X035170Y036540
X035170Y036500
X035170Y036460
X058550Y036460
X058550Y036500
X058550Y036540
X058550Y036580
X058550Y036620
X058550Y036660
X058550Y036700
X058550Y036740
X058550Y036780
X058550Y036820
X058550Y036860
X058550Y036890
X058550Y036930
X058550Y036970
X058550Y037010
X060930Y037050
X060970Y037050
X061000Y037050
X061040Y037050
X061080Y037050
X061120Y037050
X061160Y037050
X061200Y037050
X061240Y037050
X061280Y037050
X061320Y037050
X061360Y037050
X061400Y037050
X061440Y037050
X061480Y037050
X063860Y037010
X063860Y036970
X063860Y036930
X063860Y036890
X063860Y036860
X063860Y036820
X063860Y036780
X063860Y036740
X063860Y036700
X063860Y036660
X063860Y036620
X063860Y036580
X063860Y036540
X063860Y036500
X063860Y036460
X065090Y036460
X065090Y036500
X065090Y036540
X065090Y036580
X065090Y036620
X065090Y036660
X065090Y036700
X065090Y036740
X065090Y036780
X065090Y036820
X065090Y036860
X065090Y036890
X065090Y036930
X065090Y036970
X065090Y037010
X067470Y037050
X067510Y037050
X067550Y037050
X067590Y037050
X067630Y037050
X067670Y037050
X067710Y037050
X067750Y037050
X067790Y037050
X067830Y037050
X067870Y037050
X067910Y037050
X067950Y037050
X067980Y037050
X068020Y037050
X070400Y037010
X070400Y036970
X070400Y036930
X070400Y036890
X070400Y036860
X070400Y036820
X070400Y036780
X070400Y036740
X070400Y036700
X070400Y036660
X070400Y036620
X070400Y036580
X070400Y036540
X070400Y036500
X070400Y036460
X075680Y034570
X076730Y034570
X077830Y034570
X078920Y034570
X080000Y034570
X081090Y034570
X082180Y034570
X083270Y034570
X082730Y035690
X081640Y035690
X080550Y035690
X079460Y035690
X078370Y035690
X077290Y035690
X076200Y035690
T06
X006980Y-028170
X008610Y-028170
X008610Y-026050
X006980Y-026050
X076410Y-014220
X080410Y-014220
T07
X071880Y-013690
X071880Y007250
T08
X085280Y-003840
X085280Y-002280
X085280Y-000720
X085280Y000840
X085280Y003970
X085280Y005530
T09
X071880Y028250
T10
X076410Y022220
X080410Y022220
T11
X037650Y035140
X056150Y035140
X072930Y035140
X085990Y035140
M30
